<?xml version="1.0" encoding="UTF-8" standalone="no"?>
<!DOCTYPE svg PUBLIC "-//W3C//DTD SVG 1.1//EN" "http://www.w3.org/Graphics/SVG/1.1/DTD/svg11.dtd">
<svg width="100%" height="100%" viewBox="0 0 455 513" version="1.1" xmlns="http://www.w3.org/2000/svg" xmlns:xlink="http://www.w3.org/1999/xlink" xml:space="preserve" xmlns:serif="http://www.serif.com/" style="fill-rule:evenodd;clip-rule:evenodd;stroke-linejoin:round;stroke-miterlimit:2;">
    <g transform="matrix(1.2571,0,0,1.2571,-53.8259,-50.1705)">
        <path d="M186.201,200.999C186.201,198.466 188.257,196.41 190.79,196.41C193.323,196.41 195.379,198.466 195.379,200.999L195.379,231.285C195.379,238.837 201.593,245.051 209.145,245.051C216.697,245.051 222.911,238.837 222.911,231.285L222.911,200.999C222.911,198.466 224.967,196.41 227.5,196.41C230.033,196.41 232.089,198.466 232.089,200.999L232.089,231.285C232.089,243.871 221.732,254.229 209.145,254.229C196.558,254.229 186.201,243.871 186.201,231.285L186.201,200.999ZM222.911,231.285C222.911,228.752 224.967,226.696 227.5,226.696C230.033,226.696 232.089,228.752 232.089,231.285L232.089,249.64C232.089,252.172 230.033,254.229 227.5,254.229C224.967,254.229 222.911,252.172 222.911,249.64L222.911,231.285ZM103.564,220.272C103.564,222.804 101.508,224.861 98.975,224.861C96.443,224.861 94.387,222.804 94.387,220.272C94.387,207.685 104.744,197.328 117.33,197.328C129.917,197.328 140.274,207.685 140.274,220.272L140.274,249.64C140.274,252.172 138.218,254.229 135.685,254.229C133.153,254.229 131.097,252.172 131.097,249.64L131.097,220.272C131.097,212.72 124.882,206.506 117.33,206.506C109.779,206.506 103.564,212.72 103.564,220.272ZM94.388,201.917C94.388,199.384 96.444,197.328 98.976,197.328C101.509,197.328 103.565,199.384 103.565,201.917L103.565,249.64C103.565,252.172 101.509,254.229 98.976,254.229C96.444,254.229 94.388,252.172 94.388,249.64L94.388,201.917ZM140.274,220.272C140.274,222.804 138.218,224.861 135.685,224.861C133.153,224.861 131.097,222.804 131.097,220.272C131.097,207.685 141.454,197.328 154.04,197.328C166.627,197.328 176.984,207.685 176.984,220.272L176.984,249.64C176.984,252.172 174.928,254.229 172.395,254.229C169.863,254.229 167.807,252.172 167.807,249.64L167.807,220.272C167.807,212.72 161.592,206.506 154.04,206.506C146.489,206.506 140.274,212.72 140.274,220.272ZM296.108,172.09C299.654,172.09 302.533,174.969 302.533,178.514C302.533,182.06 299.654,184.938 296.108,184.938C292.563,184.938 289.684,182.06 289.684,178.514C289.684,174.969 292.563,172.09 296.108,172.09ZM291.52,200.999C291.52,198.466 293.576,196.41 296.108,196.41C298.641,196.41 300.697,198.466 300.697,200.999L300.697,249.64C300.697,252.172 298.641,254.229 296.108,254.229C293.576,254.229 291.52,252.172 291.52,249.64L291.52,200.999ZM244.315,249.136C242.305,247.595 241.924,244.712 243.465,242.702C245.006,240.692 247.889,240.312 249.899,241.853C253.24,244.415 257.459,245.562 261.638,245.045C261.825,245.021 262.013,245.01 262.202,245.01L266.316,245.01C270.459,245.005 273.866,241.595 273.866,237.451L273.866,237.426C273.866,233.282 270.459,229.872 266.316,229.867L258.084,229.867L258.079,229.867C248.905,229.857 241.362,222.306 241.362,213.132L241.362,213.104C241.362,203.93 248.905,196.379 258.079,196.369L258.084,196.369L261.925,196.37C268.399,195.644 274.914,197.452 280.09,201.42C282.1,202.961 282.481,205.844 280.94,207.854C279.399,209.864 276.516,210.245 274.506,208.704C271.164,206.142 266.945,204.994 262.766,205.512C262.579,205.535 262.39,205.547 262.202,205.547L258.088,205.547C253.946,205.551 250.539,208.961 250.539,213.104L250.539,213.132C250.539,217.275 253.946,220.685 258.088,220.689L266.32,220.689L266.325,220.689C275.499,220.699 283.043,228.251 283.043,237.426L283.043,237.451C283.043,246.626 275.499,254.178 266.325,254.187L266.32,254.187L262.479,254.186C256.005,254.913 249.49,253.104 244.315,249.136ZM344.619,238.118C345.876,235.919 348.681,235.154 350.88,236.41C353.079,237.666 353.844,240.472 352.588,242.671C348.508,249.811 340.889,254.232 332.665,254.229C320.079,254.228 309.722,243.871 309.722,231.285L309.722,219.354C309.722,206.768 320.079,196.411 332.665,196.41C340.872,196.407 348.48,200.81 352.565,207.928C353.826,210.125 353.066,212.932 350.869,214.192C348.673,215.453 345.866,214.693 344.605,212.497C342.155,208.226 337.591,205.586 332.668,205.588L332.666,205.588C325.114,205.588 318.9,211.802 318.9,219.354L318.9,231.285C318.9,238.837 325.114,245.051 332.666,245.051L332.668,245.051C337.601,245.053 342.172,242.402 344.619,238.118ZM220.765,315.094L220.498,315.094C181.799,313.387 145.371,300.804 118.605,279.897C117.246,279.059 116.422,277.83 116.338,276.516C116.472,273.832 118.205,272.539 121.673,272.539L126.608,273.931C154.751,288.095 187.422,296.466 221.298,298.191C248.99,298.289 276.352,293.699 301.319,284.769L306.92,283.576C307.147,283.557 307.375,283.547 307.603,283.547C310.968,283.547 313.738,285.612 313.738,288.121C313.738,288.23 313.732,288.339 313.722,288.448C313.609,290.061 312.468,291.54 310.655,292.425C284.863,307.153 253.254,315.125 220.765,315.094ZM319.857,301.075L319.99,301.075C319.769,301.101 319.546,301.114 319.323,301.114C317.012,301.114 315.099,299.715 315.056,297.992C315.244,296.989 315.649,296.015 316.256,295.109C316.923,293.717 318.123,291.331 319.59,288.05C320.997,285.382 321.808,282.561 321.991,279.698C321.991,278.903 319.724,278.107 315.322,278.107L296.384,279.698C293.05,279.698 291.45,278.604 291.45,276.317C292.25,270.551 302.119,267.468 321.191,266.375C332.794,266.375 338.662,268.96 338.662,273.931C338.536,278.414 337.409,282.849 335.328,287.056C331.06,296.302 325.992,301.075 319.857,301.075ZM94.387,220.272C94.387,212.832 98.006,206.171 103.565,201.967L103.565,220.272C103.565,222.804 101.508,224.861 98.975,224.861C96.443,224.861 94.387,222.804 94.387,220.272ZM131.097,220.272C131.097,215.155 132.808,210.407 135.685,206.573C138.563,210.407 140.274,215.155 140.274,220.272C140.274,222.804 138.218,224.861 135.685,224.861C133.153,224.861 131.097,222.804 131.097,220.272ZM222.911,249.589L222.911,231.285C222.911,228.752 224.967,226.696 227.5,226.696C230.033,226.696 232.089,228.752 232.089,231.285C232.089,238.725 228.47,245.386 222.911,249.589Z"/>
    </g>
</svg>
