<?xml version="1.0" encoding="UTF-8" standalone="no"?>
<!DOCTYPE svg PUBLIC "-//W3C//DTD SVG 1.1//EN" "http://www.w3.org/Graphics/SVG/1.1/DTD/svg11.dtd">
<svg width="100%" height="100%" viewBox="0 0 455 513" version="1.1" xmlns="http://www.w3.org/2000/svg" xmlns:xlink="http://www.w3.org/1999/xlink" xml:space="preserve" xmlns:serif="http://www.serif.com/" style="fill-rule:evenodd;clip-rule:evenodd;stroke-linejoin:round;stroke-miterlimit:2;">
    <path d="M222.112,155.147C233.15,155.147 242.112,164.109 242.112,175.147C242.112,186.185 233.15,195.147 222.112,195.147C211.074,195.147 202.112,186.185 202.112,175.147C202.112,164.109 211.074,155.147 222.112,155.147ZM149.094,264.834C160.132,264.834 169.094,273.796 169.094,284.834C169.094,295.873 160.132,304.834 149.094,304.834C138.055,304.834 129.094,295.873 129.094,284.834C129.094,273.796 138.055,264.834 149.094,264.834ZM161.258,191.786C172.296,191.786 181.258,200.747 181.258,211.786C181.258,222.824 172.296,231.786 161.258,231.786C150.219,231.786 141.258,222.824 141.258,211.786C141.258,200.747 150.219,191.786 161.258,191.786ZM110.661,385.261C112.605,383.236 126.348,376.942 134.235,366.599C134.825,365.825 135.509,364.824 135.764,364.369C137.564,361.155 138.837,357.192 142.451,350.817C144.604,347.021 147.326,343.215 149.577,341.29C150.651,340.372 154.678,336.27 161.147,334.322C166.12,332.824 172.631,332.861 179.769,335.003C182.387,335.789 188.293,338.604 192.243,342.354C197.219,347.078 200.625,353.975 200.972,362.103C201.514,374.76 194.012,389.522 180.28,397.217C175.976,399.629 170.274,402.171 155.888,401.963C149.795,401.874 141.831,400.424 134.582,398.349C124.887,395.575 110.871,386.981 110.661,385.261ZM299.793,158.962C279.655,143.8 254.654,134.814 227.577,134.814C160.968,134.814 106.921,189.194 106.921,256.137C106.921,283.973 111.718,297.641 126.094,323.195C125.877,323.458 127.95,324.53 127.207,332.009C126.944,334.663 123.984,338.358 120.161,340.137C118.074,341.108 115.65,341.28 113.451,340.928C109.945,340.367 107.318,337.9 105.974,335.993C96.777,322.944 81.921,293.501 81.921,256.137C81.921,175.362 147.205,109.814 227.577,109.814C261.781,109.814 293.253,121.685 318.122,141.549C332.335,128.868 343.826,120.855 348.307,122.021C350.544,123.561 350.54,126.588 348.854,132.561C347.832,136.178 345.482,144.724 337.932,160.674C359.927,186.304 373.234,219.668 373.234,256.137C373.234,281.039 366.908,305.496 354.9,327.206L372.704,386.357C374.032,390.771 372.824,395.557 369.561,398.811C366.297,402.066 361.508,403.26 357.098,401.92L298.312,384.048C276.701,396.109 252.36,402.46 227.577,402.46C226.841,402.46 221.806,401.544 218.905,398.114C217.415,396.352 216.153,394.08 215.804,392.074C215.313,389.246 215.801,386.594 216.543,384.861C217.661,382.253 220.082,380.068 222.39,379.032C223.813,378.393 227.179,377.46 227.577,377.46C249.668,377.46 271.333,371.362 290.211,359.833C293.255,357.974 296.949,357.504 300.362,358.541L342.037,371.211L329.402,329.234C328.383,325.849 328.846,322.19 330.675,319.164C342.161,300.168 348.234,278.366 348.234,256.137C348.234,229.579 339.728,204.998 325.305,185.006C316.362,201.037 303.993,221.304 286.822,246.686C232.583,326.864 219.326,341.671 210.56,337.531C200.854,332.946 186.941,322.754 184.341,318.989C181.372,314.689 181.684,310.485 184.719,304.733C190.899,293.015 200.833,277.494 211.644,262.565C228.082,239.865 267.002,194.374 270.325,190.564C279.837,179.654 290.006,168.757 299.793,158.962Z"/>
</svg>
