<?xml version="1.0" encoding="UTF-8" standalone="no"?>
<!DOCTYPE svg PUBLIC "-//W3C//DTD SVG 1.1//EN" "http://www.w3.org/Graphics/SVG/1.1/DTD/svg11.dtd">
<svg width="100%" height="100%" viewBox="0 0 455 513" version="1.1" xmlns="http://www.w3.org/2000/svg" xmlns:xlink="http://www.w3.org/1999/xlink" xml:space="preserve" xmlns:serif="http://www.serif.com/" style="fill-rule:evenodd;clip-rule:evenodd;stroke-linejoin:round;stroke-miterlimit:2;">
    <g transform="matrix(14.5292,0,0,14.5292,227.5,256.049)">
        <g transform="matrix(1,0,0,1,-12,-12)">
            <clipPath id="_clip1">
                <rect x="0" y="0" width="24" height="24"/>
            </clipPath>
            <g clip-path="url(#_clip1)">
                <path d="M6.501,10.727C7.094,10.727 7.53,10.923 7.808,11.314C8.087,11.707 8.226,12.171 8.226,12.705L8.226,13.017L5.674,13.017C5.712,13.251 5.834,13.463 6.017,13.613C6.2,13.762 6.439,13.836 6.735,13.836C6.907,13.836 7.062,13.814 7.199,13.77C7.362,13.715 7.522,13.651 7.679,13.578L7.976,14.311C7.785,14.454 7.565,14.555 7.332,14.607C7.079,14.67 6.873,14.701 6.712,14.7C6.057,14.7 5.54,14.521 5.162,14.163C4.785,13.803 4.597,13.323 4.597,12.722C4.597,12.119 4.767,11.636 5.107,11.272C5.448,10.908 5.913,10.726 6.501,10.727M15.336,10.727C15.929,10.727 16.364,10.923 16.643,11.314C16.921,11.707 17.06,12.171 17.06,12.705L17.06,13.017L14.508,13.017C14.546,13.252 14.668,13.464 14.852,13.613C15.034,13.762 15.273,13.836 15.57,13.836C15.741,13.836 15.896,13.814 16.034,13.77C16.197,13.714 16.357,13.65 16.514,13.578L16.811,14.311C16.62,14.454 16.4,14.555 16.167,14.607C15.965,14.662 15.757,14.693 15.547,14.7C14.891,14.7 14.374,14.521 13.997,14.163C13.62,13.803 13.431,13.323 13.431,12.722C13.431,12.119 13.602,11.636 13.943,11.272C14.283,10.908 14.747,10.726 15.336,10.727M19.211,10.768C20.185,10.768 20.814,11.27 20.814,12.028L20.814,14.607L19.787,14.607L19.787,14.046L19.767,14.046C19.552,14.431 19.151,14.666 18.656,14.666C17.9,14.666 17.391,14.193 17.391,13.53L17.391,13.522C17.391,12.839 17.921,12.439 18.856,12.378L19.787,12.323L19.787,12.092C19.787,11.757 19.57,11.551 19.169,11.551C18.786,11.551 18.554,11.731 18.505,11.972L18.498,12.002L17.559,12.002L17.563,11.962C17.619,11.266 18.216,10.768 19.211,10.768M24,13.568L24,14.607L22.96,14.607L22.96,13.568L24,13.568ZM1.982,9.308C2.497,9.308 2.916,9.421 3.239,9.648C3.561,9.874 3.722,10.254 3.723,10.788C3.723,10.986 3.677,11.164 3.586,11.322C3.495,11.482 3.377,11.619 3.231,11.732C3.471,11.857 3.668,12.026 3.821,12.238C3.974,12.451 4.051,12.721 4.051,13.048C4.051,13.537 3.88,13.919 3.539,14.194C3.199,14.469 2.745,14.607 2.177,14.607L0,14.607L0,9.308L1.982,9.308ZM10.684,9.308C11.262,9.308 11.756,9.441 12.167,9.706C12.578,9.971 12.784,10.381 12.784,10.937C12.784,11.264 12.699,11.546 12.53,11.783C12.363,12.018 12.138,12.207 11.878,12.332L13.182,14.607L12.105,14.607L10.981,12.582C10.859,12.593 10.736,12.598 10.614,12.597L10.029,12.597L10.029,14.607L9.022,14.607L9.022,9.308L10.684,9.308ZM22.448,9.3L22.448,14.607L21.372,14.607L21.372,9.3L22.448,9.3ZM19.788,12.961L19.011,13.01C18.614,13.035 18.406,13.202 18.406,13.47L18.406,13.477C18.406,13.754 18.635,13.919 18.99,13.919C19.45,13.919 19.787,13.625 19.787,13.231L19.788,12.961ZM2.17,12.285L1.007,12.285L1.007,13.774L2.099,13.774C2.37,13.774 2.587,13.711 2.751,13.586C2.916,13.462 3.009,13.262 2.997,13.056C2.997,12.807 2.922,12.616 2.771,12.484C2.62,12.351 2.419,12.285 2.17,12.285M6.478,11.591C6.286,11.585 6.098,11.653 5.955,11.781C5.815,11.91 5.724,12.096 5.682,12.339L7.266,12.339C7.214,12.086 7.12,11.898 6.985,11.775C6.846,11.651 6.664,11.585 6.478,11.591M15.312,11.591C15.12,11.585 14.932,11.653 14.789,11.781C14.649,11.91 14.558,12.096 14.516,12.339L16.101,12.339C16.048,12.086 15.955,11.898 15.82,11.775C15.68,11.651 15.499,11.585 15.312,11.591M10.653,10.15L10.029,10.15L10.029,11.77L10.669,11.77C10.97,11.77 11.22,11.709 11.418,11.588C11.616,11.465 11.715,11.264 11.714,10.984C11.714,10.687 11.621,10.474 11.434,10.345C11.246,10.215 10.986,10.15 10.653,10.15M1.834,10.15L1.007,10.15L1.007,11.466L1.756,11.466C2.036,11.466 2.256,11.413 2.416,11.306C2.574,11.201 2.653,11.034 2.654,10.805C2.654,10.555 2.581,10.383 2.435,10.29C2.289,10.197 2.089,10.15 1.834,10.15" style="fill-rule:nonzero;"/>
            </g>
        </g>
    </g>
</svg>
