<?xml version="1.0" encoding="UTF-8" standalone="no"?>
<!DOCTYPE svg PUBLIC "-//W3C//DTD SVG 1.1//EN" "http://www.w3.org/Graphics/SVG/1.1/DTD/svg11.dtd">
<svg width="100%" height="100%" viewBox="0 0 455 513" version="1.1" xmlns="http://www.w3.org/2000/svg" xmlns:xlink="http://www.w3.org/1999/xlink" xml:space="preserve" xmlns:serif="http://www.serif.com/" style="fill-rule:evenodd;clip-rule:evenodd;stroke-linecap:round;stroke-linejoin:round;stroke-miterlimit:1.5;">
    <g transform="matrix(0.461324,0,0,0.461324,227.5,256.049)">
        <g transform="matrix(1,0,0,1,-400,-400)">
            <path d="M506.042,646.917C505.721,646.964 505.403,647.029 505.092,647.112C503.721,647.475 502.508,648.169 501.527,649.093C500.544,650.014 499.775,651.181 499.327,652.526C499.224,652.832 499.139,653.146 499.073,653.465L490.164,692.52C490.118,692.719 490.08,692.92 490.05,693.121C490.05,693.121 488.392,702.367 478.555,707.396C470.493,711.517 457.841,712.671 438.055,706.959L437.9,706.916L323.282,676.204C323.174,676.175 323.066,676.148 322.958,676.124L208.657,645.496L208.501,645.456C188.514,640.511 178.137,633.187 173.217,625.587C167.214,616.313 170.403,607.477 170.403,607.477C170.477,607.287 170.544,607.094 170.604,606.899L182.417,568.621C182.519,568.311 182.602,567.997 182.666,567.681C182.951,566.291 182.868,564.896 182.477,563.607C182.089,562.317 181.386,561.109 180.38,560.11C180.152,559.882 179.91,559.667 179.655,559.465C24.513,432.559 77.487,250.231 195.292,152.201C313.648,53.712 477.631,99.82 477.631,99.82L477.812,99.868C477.812,99.868 642.883,141.924 696.138,286.396C749.145,430.194 703.853,614.589 506.042,646.917ZM240.837,316.01C189.212,316.01 147.3,357.922 147.3,409.547C147.3,461.171 189.212,503.083 240.837,503.083C292.461,503.083 334.373,461.171 334.373,409.547C334.373,357.922 292.461,316.01 240.837,316.01ZM391.133,573.609C394.009,574.38 397.077,573.558 399.182,571.453C401.288,569.348 402.11,566.279 401.339,563.403L391.496,526.663L381.651,489.925C380.88,487.049 378.634,484.803 375.758,484.032C372.883,483.262 369.814,484.084 367.709,486.189L313.919,539.979C311.814,542.084 310.992,545.153 311.762,548.029C312.533,550.904 314.779,553.151 317.655,553.921L354.395,563.764L391.133,573.609ZM324.46,301.833L363.137,368.82C365.436,372.803 370.537,374.17 374.52,371.87C378.503,369.57 379.87,364.47 377.57,360.487L338.893,293.5C336.594,289.517 331.493,288.15 327.51,290.45C323.527,292.75 322.16,297.85 324.46,301.833ZM527.803,392.903C476.179,392.903 434.267,434.816 434.267,486.44C434.267,538.064 476.179,579.977 527.803,579.977C579.428,579.977 621.34,538.064 621.34,486.44C621.34,434.816 579.428,392.903 527.803,392.903ZM500.911,336.906L433.922,375.573C429.939,377.872 428.572,382.973 430.871,386.956C433.17,390.939 438.271,392.307 442.254,390.007L509.243,351.341C513.226,349.041 514.593,343.941 512.294,339.957C509.995,335.974 504.894,334.607 500.911,336.906Z"/>
            <g transform="matrix(1.0016,0,0,1.00847,-0.0435639,-0.255668)">
                <ellipse cx="394.192" cy="394.602" rx="366.914" ry="364.414" style="fill:none;stroke:black;stroke-width:34.82px;"/>
            </g>
        </g>
    </g>
</svg>
