<?xml version="1.0" encoding="UTF-8" standalone="no"?>
<!DOCTYPE svg PUBLIC "-//W3C//DTD SVG 1.1//EN" "http://www.w3.org/Graphics/SVG/1.1/DTD/svg11.dtd">
<svg width="100%" height="100%" viewBox="0 0 455 513" version="1.1" xmlns="http://www.w3.org/2000/svg" xmlns:xlink="http://www.w3.org/1999/xlink" xml:space="preserve" xmlns:serif="http://www.serif.com/" style="fill-rule:evenodd;clip-rule:evenodd;stroke-linejoin:round;stroke-miterlimit:2;">
    <g transform="matrix(0.448508,0,0,0.448508,227.5,256.049)">
        <g transform="matrix(1,0,0,1,-400,-400)">
            <g>
                <path d="M497.249,267.372L545.391,298.646C552.286,303.126 556.538,310.71 556.762,318.929C557.531,347.133 542.377,373.483 542.377,373.483C537.901,381.181 529.669,385.918 520.764,385.918L481.001,385.918C482.892,422.758 501.224,453.057 520.116,475.278C543.647,502.955 568.643,518.496 568.643,518.496C569.504,519.026 570.332,519.608 571.122,520.238C638.885,574.275 634.506,662.034 633.792,671.808C633.795,671.828 638.503,702.264 560.509,720.543C552.998,722.687 510.617,733.161 399.997,732.976C289.355,733.161 246.989,722.685 239.504,720.547C161.497,702.264 166.204,671.828 166.208,671.809C165.494,662.035 161.114,574.275 228.878,520.238C229.668,519.608 230.496,519.026 231.357,518.496C231.357,518.496 256.353,502.955 279.884,475.278C298.776,453.057 317.108,422.758 318.999,385.918L279.236,385.918C270.331,385.918 262.099,381.181 257.623,373.483C257.623,373.483 242.473,347.142 243.221,318.948C243.441,310.677 247.737,303.051 254.698,298.579L301.757,268.339C276.068,236.95 266.969,194.273 279.365,154.389C295.322,103.025 343.58,67.424 398.2,67.025C452.814,66.621 501.598,101.503 518.324,152.622C531.38,192.522 522.766,235.561 497.249,267.372Z"/>
            </g>
        </g>
    </g>
</svg>
