<?xml version="1.0" encoding="UTF-8" standalone="no"?>
<!DOCTYPE svg PUBLIC "-//W3C//DTD SVG 1.1//EN" "http://www.w3.org/Graphics/SVG/1.1/DTD/svg11.dtd">
<svg width="100%" height="100%" viewBox="0 0 455 513" version="1.1" xmlns="http://www.w3.org/2000/svg" xmlns:xlink="http://www.w3.org/1999/xlink" xml:space="preserve" xmlns:serif="http://www.serif.com/" style="fill-rule:evenodd;clip-rule:evenodd;stroke-linejoin:round;stroke-miterlimit:2;">
    <g transform="matrix(0.754432,0,0,0.754432,227.5,256.049)">
        <g transform="matrix(1,0,0,1,-250,-250)">
            <g transform="matrix(1.23522,0,0,1.23522,-79.7198,-62.3758)">
                <path d="M212.52,65.781C213.855,65.803 236.035,66.137 264.707,69.336C294.226,72.629 329.186,79.371 347.969,89.805C389.286,112.755 409.962,130.031 419.844,158.574C412.546,181.948 410.259,194.733 407.109,208.672C398.691,197.813 384.922,188.408 360.313,188.828C345.833,189.075 334.64,183.87 328.34,180.195C331.268,176.046 333.311,171.395 334.746,167.148C337.39,159.326 338.164,152.461 338.164,152.461C338.19,152.254 338.203,152.045 338.203,151.836C338.203,149.093 335.946,146.836 333.203,146.836L333.184,146.836C330.63,146.844 328.472,148.806 328.223,151.348C328.223,151.348 327.537,157.247 325.273,163.945C323.931,167.918 321.94,171.836 319.57,174.98C318.874,174.746 318.153,174.589 317.422,174.512C317.422,174.512 309.793,173.746 300.293,171.016C290.793,168.285 280.044,163.342 274.609,157.227C266.401,147.995 256.314,138.784 242.91,134.258C229.507,129.731 213.205,130.736 195.801,139.844C184.936,145.529 177.377,155.919 170.508,167.949C163.638,179.979 157.684,194.007 152.227,207.891C146.769,221.774 141.818,235.504 137.305,246.582C132.791,257.66 127.952,266.354 126.23,268.125C123.51,270.913 122.14,270.964 121.543,270.938C120.944,270.911 120.172,270.657 119.102,269.316C116.962,266.635 115.529,260.425 119.395,254.629C126.912,243.356 135.543,223.056 145,201.445C154.457,179.835 164.393,157.276 171.367,145.508C180.204,130.596 185.839,110.443 192.617,93.73C196.006,85.374 199.647,77.971 203.281,73.027C206.799,68.243 209.775,66.353 212.52,65.781Z"/>
            </g>
            <g transform="matrix(1.23522,0,0,1.23522,-79.7198,-62.3758)">
                <path d="M222.793,151.641C227.896,151.092 232.334,151.795 236.504,153.203C244.843,156.019 252.537,162.509 259.648,170.508C260.742,171.738 261.903,172.871 263.086,173.965C260.91,172.63 258.611,171.453 256.055,170.723C249.436,168.833 241.802,168.823 234.824,170.059C227.846,171.294 221.407,173.39 217.5,178.594C215.21,181.644 214.95,185.509 215.742,188.848C216.534,192.186 218.264,195.347 220.625,198.34C225.347,204.325 232.732,209.716 241.836,212.266C244.647,213.052 247.617,213.299 250.605,213.281C248.413,216.632 247.492,220.367 247.891,223.848C237.952,218.739 225.89,213.896 209.531,210.43C194.568,207.262 182.182,209.837 171.23,214.336C176.442,201.135 182.013,188.111 187.871,177.852C193.867,167.351 200.368,160.033 205.059,157.578C211.911,153.992 217.69,152.189 222.793,151.641Z"/>
            </g>
            <g transform="matrix(1.23522,0,0,1.23522,-79.7198,-62.3758)">
                <path d="M269.648,179.023C277.805,184.557 286.885,187.969 294.766,190.234C304.692,193.087 310.981,193.689 312.91,193.906C315.911,196.194 328.625,205.319 348.359,208.008C347.112,208.011 345.863,208.006 344.629,208.066C340.88,208.251 337.308,208.753 334.199,209.629C331.091,210.504 328.142,211.269 326.035,214.785C324.206,217.837 324.358,220.983 325.176,224.395C325.994,227.806 327.781,231.5 330.762,235.156C331.691,236.295 332.955,237.402 334.121,238.516C334.253,239.263 334.554,239.972 335,240.586C337.943,245.078 336.173,248.811 333.242,251.133C331.777,252.294 330.103,252.81 328.77,252.695C327.436,252.58 326.2,252.103 324.746,249.922C323.286,247.735 320.338,247.053 318.066,248.379C311.996,251.932 305.464,252.884 299.355,251.797C298.208,251.452 297.06,251.131 295.918,250.781C294.333,250.296 293,249.661 291.543,249.102C284.219,245.281 278.35,238.179 276.152,228.594C275.63,226.333 273.6,224.718 271.28,224.718C270.697,224.718 270.118,224.82 269.57,225.02C263.098,227.372 259.454,225.569 258.242,224.004C257.031,222.439 256.535,220.325 260.684,216.719C268.937,209.544 284.16,214.16 284.16,214.16C284.758,214.403 285.397,214.528 286.042,214.528C288.785,214.528 291.042,212.27 291.042,209.527C291.042,207.311 289.569,205.347 287.441,204.727C287.441,204.727 282.945,203.137 276.953,202.617C278.19,200.954 279.174,199.098 279.434,196.855C279.799,193.715 278.794,191.788 277.617,189.473C276.44,187.157 274.788,184.73 272.754,182.324C271.809,181.207 270.758,180.104 269.648,179.023Z"/>
            </g>
            <g transform="matrix(1.23522,0,0,1.23522,-79.7198,-62.3758)">
                <path d="M357.012,208.672C358.236,208.706 359.377,208.85 360.645,208.828C385.869,208.398 392.277,216.407 395.566,223.984C398.855,231.562 397.441,239.922 397.441,239.922C397.167,241.187 397.14,242.494 397.363,243.77C392.514,252.901 384.512,273.097 377.617,289.004C375.835,285.845 374.136,282.629 371.387,280C363.31,272.272 352.049,268.108 338.848,263.711C337.142,263.143 335.202,262.609 333.438,262.051C335.634,261.414 337.688,260.363 339.453,258.965C343.045,256.12 345.559,251.631 346.113,246.719C351.263,249.303 357.259,251.593 364.707,253.184C369.304,254.165 374.027,251.844 376.406,248.457C378.786,245.07 379.689,240.919 379.688,236.543C379.684,227.791 375.702,217.456 366.074,211.758C363.376,210.162 360.272,209.235 357.012,208.672Z"/>
            </g>
            <g transform="matrix(1.23522,0,0,1.23522,-79.7198,-62.3758)">
                <path d="M180.566,318.047C189.19,322.942 218.31,338.722 248.359,345.332C273.421,361.172 296.833,367.833 310.449,370.605L286.25,440L259.063,440C258.741,439.912 258.415,439.84 258.086,439.785C183.503,428.594 151.522,391.834 145.059,383.965C145.953,383.37 147.029,383.548 147.891,382.871C161.983,371.799 169.78,351.525 176.523,331.23C178.007,326.765 179.321,322.367 180.566,318.047Z"/>
            </g>
            <g transform="matrix(1.23522,0,0,1.23522,-79.7198,-62.3758)">
                <path d="M193.496,228.613C197.099,228.648 201.042,229.08 205.391,230C228.242,234.841 240.511,241.744 251.699,249.063C262.887,256.381 273.404,264.802 290.059,269.902C305.12,274.515 320.181,278.566 332.52,282.676C344.858,286.786 354.495,291.521 357.559,294.453C363.439,300.077 364.416,312.812 360.527,328.145C342.178,373.625 325.891,416.603 318.535,439.434C312.934,439.429 310.979,439.448 307.598,439.551L349.336,319.902C351.082,314.905 348.573,309.343 343.672,307.344C343.672,307.344 312.16,294.531 279.023,281.348C262.455,274.756 245.495,268.068 231.797,262.832C224.948,260.214 218.915,257.947 214.121,256.23C209.327,254.514 206.248,253.404 203.242,252.734C195.847,251.093 187.689,250.204 180.469,255.137C173.248,260.069 170.493,268.375 169.141,278.398C168.106,286.062 163.84,305.959 157.539,324.922C151.238,343.885 141.545,362.401 135.527,367.129C128.655,372.528 120.926,371.799 117.285,369.082C115.465,367.723 114.387,366.141 114.082,363.242C113.777,360.343 114.504,355.766 118.242,349.473C137.094,317.717 145.574,289.228 151.855,265.547C154.56,255.351 160.223,244.355 168.652,237.324C172.867,233.809 177.694,231.062 183.652,229.648C186.631,228.942 189.893,228.579 193.496,228.613Z"/>
            </g>
            <g transform="matrix(1.23522,0,0,1.23522,-79.7198,-62.3758)">
                <path d="M245.332,179.258C248.244,179.332 251.025,179.702 253.301,180.352C255.807,181.067 258.35,182.735 260.742,184.688C257.459,186.195 255.346,189.491 255.346,193.103C255.346,196.754 257.505,200.078 260.84,201.563C255.491,203.34 248.776,203.824 244.531,202.637C237.675,200.716 231.812,196.376 228.477,192.148C226.809,190.035 225.822,187.951 225.488,186.543C225.154,185.135 225.384,184.749 225.488,184.609C226.371,183.433 230.935,180.899 236.563,179.902C239.376,179.404 242.42,179.183 245.332,179.258Z"/>
            </g>
            <g transform="matrix(1.23522,0,0,1.23522,-79.7198,-62.3758)">
                <path d="M354.551,218.574C357.427,219.021 359.81,219.681 360.977,220.371C366.978,223.923 369.686,230.895 369.688,236.543C369.688,239.367 368.916,241.708 368.223,242.695C367.529,243.682 367.794,243.631 366.797,243.418C359.261,241.809 353.457,239.55 348.926,237.07C355.52,233.521 358.052,225.194 354.551,218.574Z"/>
            </g>
            <g transform="matrix(1.23522,0,0,1.23522,-79.7198,-62.3758)">
                <path d="M275.605,301.523C290.19,307.338 296.447,309.884 305.332,313.477L295.078,326.973C294.5,327.725 294.148,328.626 294.063,329.57L292.734,345.02C284.012,341.879 274.02,337.304 263.438,331.035L275.605,301.523Z"/>
            </g>
            <g transform="matrix(1.23522,0,0,1.23522,-79.7198,-62.3758)">
                <path d="M314.961,317.344C317.751,318.475 325.764,321.679 327.305,322.305L317.09,351.582C313.421,350.961 308.611,349.966 302.5,348.203L303.906,331.875L314.961,317.344Z"/>
            </g>
            <g transform="matrix(1.23522,0,0,1.23522,-79.7198,-62.3758)">
                <path d="M236.699,286.23C246.169,289.908 255.871,293.69 266.309,297.832L260.723,311.367L231.934,298.047L236.699,286.23Z"/>
            </g>
            <g transform="matrix(1.23522,0,0,1.23522,-79.7198,-62.3758)">
                <path d="M230.195,302.383L260.449,312.051L254.473,326.523C242.354,324.07 229.365,319.23 217.988,314.258L229.043,303.984C229.53,303.532 229.921,302.988 230.195,302.383Z"/>
            </g>
            <g transform="matrix(1.23522,0,0,1.23522,-79.7198,-62.3758)">
                <path d="M187.656,288.789L219.707,299.023L208.164,309.766C195.861,303.87 187.051,298.75 187.051,298.75C186.619,298.488 186.169,298.26 185.703,298.066C186.456,294.721 187.134,291.569 187.656,288.789Z"/>
            </g>
            <g transform="matrix(1.23522,0,0,1.23522,-79.7198,-62.3758)">
                <path d="M189.453,278.418L222.852,293.867L227.402,282.578L215.181,277.927C215.181,277.927 203.642,273.249 199.059,272.297C193.101,271.06 191.745,271.761 191.745,271.761L189.453,278.418Z"/>
            </g>
        </g>
    </g>
</svg>
