<?xml version="1.0" encoding="UTF-8" standalone="no"?>
<!DOCTYPE svg PUBLIC "-//W3C//DTD SVG 1.1//EN" "http://www.w3.org/Graphics/SVG/1.1/DTD/svg11.dtd">
<svg width="100%" height="100%" viewBox="0 0 455 513" version="1.1" xmlns="http://www.w3.org/2000/svg" xmlns:xlink="http://www.w3.org/1999/xlink" xml:space="preserve" xmlns:serif="http://www.serif.com/" style="fill-rule:evenodd;clip-rule:evenodd;stroke-linejoin:round;stroke-miterlimit:2;">
    <g transform="matrix(16.1716,0,0,16.1716,33.4369,77.0071)">
        <path d="M23.8,13.154C23.768,13.14 23.734,13.132 23.699,13.13C23.629,13.128 23.559,13.145 23.497,13.178C23.437,13.206 23.405,13.258 23.37,13.314C23.283,13.442 23.22,13.582 23.144,13.714C23.037,13.901 22.898,14.065 22.764,14.229C22.629,14.385 22.478,14.52 22.34,14.669C22.312,14.696 22.268,14.712 22.233,14.696C22.205,14.68 22.197,14.64 22.201,14.608C22.241,14.228 22.276,13.845 22.324,13.47C22.344,13.298 22.367,13.134 22.387,12.958C22.415,12.711 22.443,12.471 22.474,12.223L22.708,10.399C22.728,10.271 22.74,10.027 22.573,9.879C22.509,9.818 22.427,9.778 22.34,9.763C22.251,9.758 22.163,9.779 22.086,9.823C21.86,9.983 21.789,10.327 21.721,10.583C21.579,11.186 21.543,11.824 21.25,12.387C21.194,12.499 21.126,12.605 21.048,12.703C20.998,12.775 20.935,12.836 20.862,12.883C20.79,12.932 20.701,12.95 20.616,12.934C20.509,12.905 20.422,12.828 20.378,12.727C20.336,12.624 20.315,12.514 20.315,12.403C20.299,11.865 20.381,11.328 20.555,10.818C20.6,10.686 20.644,10.566 20.659,10.435C20.687,10.279 20.687,10.055 20.545,9.919C20.414,9.791 20.208,9.739 20.041,9.791C19.847,9.847 19.731,10.035 19.669,10.183C19.471,10.646 19.419,11.133 19.352,11.629C19.308,11.956 19.225,12.269 19.059,12.555C18.901,12.828 18.697,13.072 18.456,13.275C18.338,13.362 18.234,13.398 18.128,13.382C18.007,13.362 17.903,13.284 17.85,13.174C17.799,13.076 17.766,12.969 17.755,12.859C17.724,12.655 17.712,12.449 17.719,12.243C17.723,12.02 17.719,11.803 17.763,11.585C17.838,11.195 18.441,9.648 18.571,9.24C18.706,8.833 18.833,8.417 18.924,7.994C19.004,7.614 19.047,7.227 19.034,6.844C19.027,6.567 18.964,6.268 18.746,6.108C18.568,5.987 18.338,5.969 18.143,6.06C17.948,6.148 17.788,6.299 17.688,6.488C17.588,6.674 17.512,6.873 17.462,7.078C17.35,7.503 17.261,7.933 17.196,8.368C17.125,8.797 17.058,9.216 16.99,9.636C16.93,9.991 16.784,11.25 16.729,11.516C16.669,11.788 16.554,12.056 16.428,12.303C16.297,12.571 16.17,12.839 16.02,13.094C15.978,13.18 15.918,13.256 15.845,13.318C15.765,13.378 15.663,13.406 15.575,13.366C15.473,13.318 15.429,13.19 15.409,13.074C15.334,12.639 15.397,12.199 15.481,11.772C15.564,11.341 15.921,9.372 16,8.921C16.099,8.389 16.24,7.871 16.285,7.331C16.313,6.943 16.375,6.451 16.083,6.144C15.968,6.008 15.773,5.984 15.643,6.008C15.469,6.044 15.333,6.184 15.255,6.304C15.155,6.432 15.069,6.584 14.997,6.771C14.882,7.055 14.811,7.386 14.736,7.681L14.704,7.81C14.621,8.193 14.561,8.58 14.518,8.972C14.494,9.182 14.474,9.393 14.458,9.604C14.45,9.704 14.442,9.807 14.431,9.911C14.431,9.991 14.438,10.079 14.403,10.155C14.389,10.18 14.371,10.203 14.351,10.223C14.271,10.295 14.149,10.283 14.041,10.279C13.484,10.263 12.996,10.579 12.691,11.034C12.511,11.286 12.41,11.576 12.301,11.868C12.291,11.916 12.267,11.968 12.247,12.02C12.196,12.163 12.117,12.347 12.025,12.531C11.934,12.694 11.828,12.848 11.708,12.991C11.592,13.138 11.463,13.276 11.324,13.401C11.178,13.531 11,13.621 10.809,13.661C10.635,13.701 10.425,13.618 10.266,13.458C10.141,13.305 10.069,13.115 10.06,12.918C10.056,12.863 10.056,12.803 10.088,12.755C10.138,12.687 10.234,12.683 10.318,12.679C10.931,12.629 11.465,12.235 11.693,11.664C11.831,11.324 11.871,10.966 11.815,10.618C11.787,10.446 11.723,10.282 11.625,10.138C11.527,9.994 11.389,9.882 11.229,9.815C10.936,9.675 10.571,9.688 10.219,9.819C9.644,10.051 9.268,10.559 9.085,11.381L9.065,11.469C8.951,11.956 8.835,12.469 8.483,12.823C8.356,12.943 8.222,12.986 8.115,12.966C8.071,12.962 8.035,12.926 8.012,12.891C7.916,12.731 8.015,12.359 8.162,11.891C8.201,11.771 8.234,11.648 8.262,11.525C8.273,11.353 8.235,11.182 8.154,11.03C8.068,10.885 7.938,10.771 7.782,10.706C7.639,10.642 7.472,10.646 7.314,10.646L7.267,10.646C7.223,10.646 7.164,10.646 7.116,10.634C7.05,10.617 6.995,10.57 6.969,10.507C6.955,10.43 6.961,10.35 6.985,10.275C6.989,10.255 6.997,10.227 7.001,10.203C7.045,10.045 6.978,9.877 6.839,9.791C6.698,9.704 6.523,9.69 6.371,9.755C6.214,9.827 6.086,9.949 6.007,10.103C5.921,10.247 5.885,10.416 5.904,10.583C5.944,10.713 5.974,10.903 5.947,11.058C5.892,11.338 5.725,11.568 5.563,11.798C5.523,11.848 5.491,11.904 5.456,11.958C5.252,12.258 5.015,12.535 4.75,12.783C4.378,13.118 3.946,13.358 3.518,13.453C2.773,13.618 2.012,13.393 1.608,12.719C1.386,12.339 1.288,11.892 1.26,11.453C1.199,10.593 1.345,9.73 1.684,8.937C2.012,8.177 2.5,7.417 3.399,7.323C3.752,7.283 4.152,7.406 4.311,7.723C4.426,7.953 4.386,8.229 4.311,8.473C4.239,8.717 4.136,8.963 4.131,9.223C4.128,9.483 4.255,9.763 4.501,9.839C4.739,9.911 4.996,9.759 5.135,9.549C5.273,9.339 5.321,9.089 5.38,8.845C5.523,8.272 5.746,7.722 6.042,7.211C6.181,6.975 6.339,6.723 6.296,6.451C6.258,6.255 6.114,6.095 5.923,6.036C5.732,5.983 5.526,6.038 5.388,6.18C5.254,6.328 5.182,6.551 5.001,6.61C4.831,6.67 4.651,6.555 4.494,6.476C3.894,6.156 3.158,6.164 2.531,6.428C1.897,6.678 1.385,7.163 1.005,7.722C0.462,8.53 0.098,9.508 0.022,10.48C-0.005,10.82 -0.009,11.175 0.022,11.518C0.058,11.978 0.122,12.372 0.236,12.724C0.375,13.147 0.553,13.514 0.783,13.818C1.049,14.158 1.37,14.418 1.723,14.565C2.095,14.713 2.507,14.785 2.915,14.773C3.322,14.755 3.721,14.659 4.092,14.49C4.465,14.314 4.81,14.085 5.118,13.81C5.427,13.55 5.712,13.251 5.958,12.92C6.12,12.696 6.267,12.46 6.398,12.212C6.463,12.087 6.522,11.959 6.576,11.829C6.62,11.725 6.663,11.614 6.778,11.569C6.834,11.526 6.928,11.549 6.98,11.582C7.044,11.622 7.095,11.657 7.115,11.717C7.163,11.833 7.135,11.949 7.111,12.049L7.111,12.061C7.083,12.161 7.056,12.264 7.02,12.364C6.88,12.788 6.782,13.175 6.86,13.559C6.905,13.766 6.988,13.946 7.11,14.086C7.242,14.23 7.42,14.323 7.614,14.35C7.86,14.39 8.124,14.322 8.339,14.218C8.482,14.15 8.617,14.062 8.736,13.958C8.796,13.898 8.858,13.838 8.91,13.774C8.954,13.714 8.997,13.627 9.088,13.631C9.131,13.636 9.17,13.659 9.195,13.695C9.223,13.726 9.235,13.766 9.255,13.81C9.485,14.33 10.031,14.65 10.59,14.65L10.66,14.65C10.93,14.65 11.216,14.557 11.45,14.43C11.72,14.29 11.93,14.082 12.15,13.878C12.17,13.862 12.195,13.838 12.223,13.834C12.258,13.826 12.293,13.846 12.322,13.878C12.345,13.908 12.361,13.942 12.369,13.978C12.504,14.318 12.829,14.578 13.193,14.638C13.562,14.695 13.935,14.561 14.183,14.282C14.239,14.222 14.287,14.154 14.35,14.106C14.414,14.062 14.5,14.03 14.572,14.062C14.679,14.102 14.707,14.226 14.754,14.33C14.861,14.565 15.111,14.701 15.369,14.705C15.658,14.705 15.923,14.557 16.133,14.365C16.328,14.182 16.486,13.966 16.649,13.755C16.677,13.716 16.713,13.683 16.755,13.659C16.795,13.635 16.851,13.631 16.885,13.659C16.918,13.683 16.93,13.719 16.945,13.75C17.108,14.15 17.532,14.402 17.955,14.398C18.372,14.394 18.764,14.174 19.058,13.882C19.153,13.79 19.252,13.682 19.378,13.672C19.518,13.655 19.585,13.786 19.632,13.892C19.704,14.034 19.747,14.13 19.882,14.23C20.04,14.346 20.242,14.382 20.429,14.33C20.599,14.29 20.769,14.174 20.899,14.014C20.971,13.926 21.011,13.81 21.089,13.73C21.181,13.643 21.221,13.758 21.225,13.83C21.241,13.946 21.241,14.066 21.233,14.182C21.217,14.418 21.181,14.653 21.153,14.885C21.142,14.953 21.133,15.021 21.09,15.073C21.03,15.141 20.924,15.153 20.837,15.137C20.731,15.122 20.623,15.112 20.516,15.109L20.376,15.093C20.175,15.081 19.976,15.057 19.766,15.049L19.581,15.049C19.177,15.049 18.848,15.097 18.551,15.209C18.071,15.396 17.699,15.779 17.548,16.227C17.478,16.433 17.46,16.653 17.496,16.867C17.536,17.07 17.626,17.27 17.778,17.454C18.043,17.769 18.458,17.969 18.927,17.997C19.335,18.017 19.779,17.933 20.219,17.737C21.067,17.37 21.701,16.643 21.915,15.787C21.915,15.767 21.925,15.748 21.938,15.744C22.236,15.64 22.508,15.496 22.751,15.316C22.996,15.129 23.218,14.917 23.401,14.673C23.491,14.553 23.575,14.43 23.654,14.303C23.724,14.178 23.784,14.046 23.856,13.923C23.919,13.827 23.963,13.72 23.986,13.607C24.016,13.496 23.998,13.376 23.936,13.279C23.908,13.222 23.86,13.178 23.801,13.155M10.121,11.525C10.138,11.454 10.166,11.385 10.181,11.319C10.243,11.139 10.331,10.969 10.443,10.815C10.483,10.767 10.523,10.715 10.578,10.679C10.631,10.638 10.698,10.621 10.764,10.631C10.871,10.651 10.947,10.759 10.966,10.867C10.998,11.047 10.926,11.263 10.852,11.422C10.783,11.583 10.677,11.725 10.542,11.837C10.482,11.881 10.428,11.925 10.364,11.953C10.336,11.961 10.301,11.981 10.249,11.981L10.233,11.981C10.178,11.981 10.119,11.953 10.107,11.893C10.084,11.771 10.09,11.646 10.122,11.526M14.43,11.342C14.426,11.414 14.406,11.49 14.402,11.565C14.381,11.824 14.381,12.085 14.402,12.344C14.414,12.496 14.449,12.644 14.386,12.788C14.295,13.072 14.089,13.305 13.819,13.431C13.743,13.468 13.659,13.487 13.574,13.487C13.554,13.487 13.534,13.483 13.514,13.483C13.394,13.483 13.3,13.391 13.249,13.303C13.201,13.219 13.167,13.127 13.149,13.031C13.072,12.657 13.097,12.27 13.221,11.909C13.301,11.689 13.423,11.474 13.601,11.315C13.754,11.17 13.954,11.085 14.164,11.075C14.238,11.071 14.311,11.094 14.37,11.139C14.41,11.183 14.43,11.243 14.426,11.303C14.433,11.315 14.434,11.33 14.43,11.343M20.86,15.996C20.845,16.04 20.8,16.1 20.78,16.136C20.738,16.216 20.678,16.299 20.619,16.371C20.522,16.481 20.416,16.583 20.302,16.675C20.064,16.855 19.799,16.986 19.525,17.062C19.366,17.106 19.203,17.13 19.038,17.134L18.998,17.134C18.811,17.137 18.628,17.073 18.483,16.954C18.403,16.892 18.347,16.803 18.325,16.704C18.31,16.6 18.327,16.494 18.372,16.399C18.449,16.23 18.584,16.094 18.752,16.016C19.078,15.856 19.434,15.84 19.771,15.856C19.91,15.86 20.036,15.868 20.171,15.876C20.278,15.88 20.389,15.888 20.496,15.9C20.552,15.9 20.611,15.904 20.666,15.912C20.71,15.916 20.758,15.908 20.801,15.92C20.861,15.924 20.869,15.956 20.861,15.996" style="fill-rule:nonzero;"/>
    </g>
</svg>
