<?xml version="1.0" encoding="UTF-8" standalone="no"?>
<!DOCTYPE svg PUBLIC "-//W3C//DTD SVG 1.1//EN" "http://www.w3.org/Graphics/SVG/1.1/DTD/svg11.dtd">
<svg width="100%" height="100%" viewBox="0 0 455 513" version="1.1" xmlns="http://www.w3.org/2000/svg" xmlns:xlink="http://www.w3.org/1999/xlink" xml:space="preserve" xmlns:serif="http://www.serif.com/" style="fill-rule:evenodd;clip-rule:evenodd;stroke-linejoin:round;stroke-miterlimit:2;">
    <g transform="matrix(0.536921,0,0,0.536921,227.5,256.049)">
        <g transform="matrix(1,0,0,1,-400,-400)">
            <g transform="matrix(20.305,0,0,20.305,-77.1678,-87.3203)">
                <path d="M31,16.363L31,12L26.594,12L26.154,12.44L24.075,16.363L23.421,16.8L16,16.8L16,22.793L20.079,22.793L20.443,23.228L16,31.637L16,36L20.406,36L20.847,35.561L22.926,31.637L23.58,31.2L31,31.2L31,25.208L26.921,25.208L26.557,24.769L31,16.363Z"/>
            </g>
        </g>
    </g>
</svg>
