<?xml version="1.0" encoding="UTF-8" standalone="no"?>
<!DOCTYPE svg PUBLIC "-//W3C//DTD SVG 1.1//EN" "http://www.w3.org/Graphics/SVG/1.1/DTD/svg11.dtd">
<svg width="100%" height="100%" viewBox="0 0 455 513" version="1.1" xmlns="http://www.w3.org/2000/svg" xmlns:xlink="http://www.w3.org/1999/xlink" xml:space="preserve" xmlns:serif="http://www.serif.com/" style="fill-rule:evenodd;clip-rule:evenodd;stroke-linejoin:round;stroke-miterlimit:2;">
    <g transform="matrix(0.358917,0,0,0.358917,227.5,256.049)">
        <g transform="matrix(1,0,0,1,-400,-400)">
            <g transform="matrix(3.91435,0,0,3.91435,5.56263e-14,5.56263e-14)">
                <path d="M110.397,47.736L110.397,0L33.13,0C30.645,0 28.63,2.015 28.63,4.5L28.63,199.876C28.63,202.361 30.645,204.376 33.13,204.376L171.247,204.376C173.732,204.376 175.747,202.361 175.747,199.876L175.747,61.35L124.003,61.35C116.501,61.35 110.397,55.243 110.397,47.736ZM108.499,168.626L61.999,168.626L61.999,158.626L108.499,158.626L108.499,168.626ZM143.499,143.626L61.999,143.626L61.999,133.626L143.499,133.626L143.499,143.626ZM143.499,118.627L61.999,118.627L61.999,108.627L143.499,108.627L143.499,118.627ZM143.499,93.627L61.999,93.627L61.999,83.627L143.499,83.627L143.499,93.627ZM120.397,47.736L120.397,10.396L164.2,51.35L124.003,51.35C122.014,51.35 120.397,49.729 120.397,47.736Z" style="fill-rule:nonzero;"/>
            </g>
        </g>
    </g>
</svg>
