<?xml version="1.0" encoding="UTF-8" standalone="no"?>
<!DOCTYPE svg PUBLIC "-//W3C//DTD SVG 1.1//EN" "http://www.w3.org/Graphics/SVG/1.1/DTD/svg11.dtd">
<svg width="100%" height="100%" viewBox="0 0 455 513" version="1.1" xmlns="http://www.w3.org/2000/svg" xmlns:xlink="http://www.w3.org/1999/xlink" xml:space="preserve" xmlns:serif="http://www.serif.com/" style="fill-rule:evenodd;clip-rule:evenodd;stroke-linejoin:round;stroke-miterlimit:2;">
    <g transform="matrix(0.364009,0,0,0.364009,227.5,256.049)">
        <g transform="matrix(1,0,0,1,-400,-400)">
            <clipPath id="_clip1">
                <rect x="0" y="0" width="800" height="800"/>
            </clipPath>
            <g clip-path="url(#_clip1)">
                <g transform="matrix(25,0,0,25,0,0)">
                    <path d="M4.719,0C2.886,0 2.214,0.677 2.214,2.505L2.214,24.588C2.214,24.797 2.225,24.989 2.241,25.167C2.288,25.568 2.288,25.959 2.662,26.396C2.698,26.448 3.074,26.724 3.074,26.724C3.277,26.823 3.417,26.896 3.646,26.989L14.761,31.645C15.334,31.906 15.58,32.016 15.996,32L16.001,32C16.422,32.016 16.668,31.907 17.241,31.645L28.35,26.989C28.585,26.896 28.719,26.822 28.927,26.724C28.927,26.724 29.303,26.437 29.339,26.396C29.714,25.959 29.714,25.568 29.76,25.167C29.776,24.99 29.787,24.798 29.787,24.594L29.787,2.506C29.787,0.678 29.11,0.001 27.282,0.001L4.719,0ZM22.527,4.145L23.432,4.145C24.943,4.145 25.683,4.88 25.683,6.412L25.683,8.917L23.85,8.917L23.85,6.51C23.85,6.021 23.626,5.797 23.151,5.797L22.839,5.797C22.35,5.797 22.126,6.021 22.126,6.51L22.126,14.259C22.126,14.748 22.35,14.972 22.839,14.972L23.188,14.972C23.656,14.972 23.88,14.748 23.88,14.259L23.88,11.488L25.713,11.488L25.713,14.348C25.713,15.873 24.964,16.624 23.448,16.624L22.527,16.624C21.006,16.624 20.26,15.868 20.26,14.348L20.26,6.425C20.26,4.9 21.005,4.144 22.527,4.144L22.527,4.145ZM6.276,4.251L10.427,4.251L10.427,5.954L8.14,5.954L8.14,9.422L10.344,9.422L10.344,11.121L8.14,11.121L8.14,14.818L10.459,14.818L10.459,16.522L6.276,16.522L6.276,4.251ZM11.364,4.251L14.292,4.251C15.807,4.251 16.557,5.006 16.557,6.531L16.557,9.792C16.557,11.317 15.806,12.068 14.292,12.068L13.235,12.068L13.235,16.521L11.364,16.521L11.364,4.251ZM17.401,4.251L19.265,4.251L19.265,16.522L17.401,16.522L17.401,4.251ZM13.229,5.901L13.229,10.421L14,10.421C14.469,10.421 14.693,10.193 14.693,9.702L14.693,6.619C14.693,6.13 14.469,5.9 14,5.9L13.229,5.901ZM8.088,19.437L8.364,19.437L8.427,19.448L8.527,19.448L8.579,19.464L8.631,19.464L8.678,19.479L8.73,19.49L8.771,19.501L8.864,19.522L8.917,19.537L8.953,19.548L8.994,19.564L9.046,19.58L9.082,19.595L9.135,19.616L9.182,19.637L9.223,19.662L9.27,19.683L9.306,19.708L9.359,19.735L9.4,19.76L9.441,19.781L9.482,19.812L9.525,19.839L9.561,19.87L9.686,19.965L9.654,20.006L9.618,20.042L9.586,20.079L9.55,20.12L9.525,20.156L9.493,20.193L9.457,20.229L9.425,20.27L9.4,20.306L9.332,20.385L9.296,20.426L9.264,20.463L9.239,20.504L9.202,20.54L9.171,20.583L9.135,20.619L9.103,20.655L9.067,20.63L9.026,20.593L8.983,20.568L8.906,20.516L8.859,20.489L8.816,20.464L8.769,20.437L8.733,20.416L8.692,20.396L8.608,20.364L8.556,20.355L8.515,20.344L8.468,20.333L8.415,20.322L8.363,20.317L8.311,20.317L8.25,20.306L8.15,20.306L8.098,20.311L8.046,20.311L7.994,20.327L7.953,20.338L7.906,20.354L7.859,20.363L7.816,20.384L7.764,20.405L7.692,20.457L7.649,20.482L7.613,20.514L7.577,20.539L7.54,20.571L7.515,20.607L7.472,20.643L7.42,20.716L7.395,20.757L7.374,20.804L7.349,20.841L7.322,20.888L7.306,20.935L7.286,20.976L7.27,21.028L7.265,21.08L7.25,21.128L7.239,21.18L7.239,21.232L7.234,21.284L7.234,21.404L7.239,21.456L7.239,21.497L7.244,21.549L7.253,21.596L7.269,21.637L7.274,21.69L7.29,21.731L7.305,21.767L7.326,21.819L7.353,21.871L7.373,21.908L7.425,21.991L7.457,22.032L7.482,22.069L7.525,22.1L7.55,22.136L7.586,22.168L7.67,22.231L7.706,22.251L7.747,22.278L7.795,22.299L7.847,22.319L7.883,22.34L7.987,22.371L8.034,22.376L8.086,22.392L8.138,22.397L8.362,22.397L8.425,22.392L8.472,22.392L8.525,22.371L8.577,22.366L8.629,22.351L8.67,22.34L8.717,22.319L8.758,22.299L8.805,22.278L8.837,22.257L8.878,22.232L8.878,21.768L8.143,21.768L8.143,21.024L9.804,21.024L9.804,22.691L9.768,22.716L9.732,22.747L9.695,22.774L9.654,22.805L9.613,22.826L9.577,22.858L9.493,22.91L9.441,22.935L9.358,22.987L9.305,23.008L9.264,23.028L9.217,23.049L9.113,23.09L9.072,23.111L8.977,23.142L8.93,23.153L8.883,23.169L8.831,23.185L8.79,23.194L8.634,23.226L8.586,23.231L8.482,23.242L8.425,23.247L8.373,23.251L8.316,23.256L8.056,23.256L8.004,23.247L7.952,23.247L7.9,23.236L7.853,23.236L7.801,23.22L7.649,23.189L7.608,23.173L7.561,23.168L7.509,23.147L7.414,23.116L7.321,23.075L7.269,23.054L7.233,23.033L7.181,23.013L7.144,22.981L7.092,22.961L7.061,22.934L7.02,22.909L6.936,22.846L6.895,22.819L6.863,22.788L6.822,22.756L6.754,22.689L6.718,22.657L6.687,22.621L6.65,22.584L6.625,22.543L6.593,22.512L6.568,22.469L6.536,22.428L6.511,22.392L6.484,22.351L6.459,22.303L6.438,22.262L6.417,22.215L6.397,22.174L6.356,22.079L6.34,22.043L6.319,21.996L6.308,21.949L6.299,21.908L6.288,21.856L6.272,21.808L6.261,21.756L6.256,21.715L6.247,21.663L6.236,21.57L6.225,21.466L6.225,21.19L6.236,21.137L6.236,21.085L6.252,21.033L6.252,20.981L6.267,20.934L6.283,20.882L6.304,20.789L6.319,20.737L6.335,20.69L6.398,20.549L6.418,20.508L6.439,20.461L6.466,20.413L6.486,20.372L6.513,20.336L6.565,20.252L6.596,20.211L6.628,20.175L6.653,20.134L6.721,20.066L6.752,20.029L6.789,19.993L6.82,19.957L6.863,19.925L6.935,19.862L6.976,19.831L7.019,19.804L7.055,19.773L7.096,19.746L7.139,19.726L7.186,19.699L7.238,19.674L7.274,19.647L7.326,19.627L7.373,19.606L7.42,19.581L7.463,19.57L7.515,19.554L7.556,19.533L7.603,19.524L7.65,19.508L7.702,19.497L7.745,19.481L7.797,19.47L7.849,19.47L7.896,19.455L7.948,19.455L8,19.444L8.047,19.444L8.088,19.437ZM24.073,19.448L24.349,19.448L24.412,19.459L24.511,19.459L24.563,19.474L24.62,19.474L24.672,19.49L24.765,19.511L24.817,19.522L24.864,19.531L24.917,19.547L24.964,19.563L25.005,19.574L25.052,19.589L25.104,19.605L25.145,19.626L25.197,19.646L25.245,19.667L25.292,19.694L25.328,19.714L25.375,19.741L25.422,19.761L25.465,19.788L25.512,19.819L25.632,19.909L25.673,19.934L25.641,19.975L25.616,20.018L25.585,20.054L25.553,20.095L25.528,20.142L25.501,20.185L25.47,20.221L25.438,20.262L25.413,20.305L25.381,20.346L25.356,20.382L25.324,20.423L25.299,20.471L25.267,20.512L25.236,20.548L25.204,20.589L25.179,20.632L25.138,20.6L25.09,20.575L25.054,20.548L25.013,20.523L24.966,20.502L24.923,20.475L24.876,20.455L24.84,20.434L24.788,20.414L24.751,20.393L24.71,20.377L24.617,20.346L24.513,20.314L24.357,20.283L24.305,20.278L24.21,20.267L24.101,20.267L24.044,20.278L23.992,20.289L23.945,20.3L23.904,20.32L23.867,20.341L23.826,20.377L23.795,20.424L23.774,20.472L23.774,20.596L23.801,20.653L23.821,20.685L23.853,20.716L23.905,20.743L23.946,20.768L23.993,20.789L24.045,20.809L24.113,20.825L24.149,20.841L24.192,20.852L24.244,20.863L24.285,20.878L24.332,20.889L24.389,20.905L24.441,20.921L24.498,20.936L24.555,20.947L24.602,20.963L24.659,20.978L24.711,20.989L24.758,21L24.915,21.047L24.956,21.063L25.008,21.079L25.055,21.099L25.107,21.126L25.211,21.167L25.258,21.194L25.342,21.246L25.419,21.303L25.467,21.334L25.503,21.37L25.539,21.413L25.576,21.449L25.601,21.485L25.638,21.537L25.663,21.574L25.684,21.626L25.704,21.657L25.72,21.709L25.736,21.752L25.747,21.799L25.767,21.903L25.772,21.955L25.777,22.002L25.777,22.127L25.772,22.184L25.761,22.288L25.75,22.34L25.735,22.387L25.724,22.439L25.708,22.491L25.693,22.538L25.672,22.575L25.651,22.622L25.626,22.663L25.594,22.7L25.542,22.783L25.479,22.856L25.443,22.881L25.402,22.918L25.37,22.949L25.329,22.98L25.288,23.001L25.247,23.033L25.199,23.058L25.106,23.105L25.054,23.126L25.007,23.146L24.955,23.162L24.908,23.178L24.865,23.189L24.761,23.209L24.725,23.22L24.673,23.231L24.621,23.231L24.574,23.242L24.522,23.242L24.47,23.253L24.099,23.253L23.943,23.237L23.891,23.226L23.844,23.221L23.74,23.201L23.683,23.19L23.636,23.179L23.584,23.163L23.531,23.152L23.484,23.137L23.432,23.121L23.38,23.1L23.339,23.085L23.287,23.069L23.235,23.048L23.198,23.028L23.146,23.012L23.105,22.985L23.053,22.965L23.012,22.938L22.975,22.913L22.923,22.886L22.887,22.866L22.846,22.834L22.805,22.809L22.762,22.777L22.726,22.746L22.685,22.714L22.648,22.689L22.607,22.652L22.639,22.611L22.675,22.575L22.706,22.538L22.743,22.497L22.768,22.461L22.8,22.42L22.836,22.383L22.867,22.347L22.904,22.306L22.929,22.269L22.966,22.233L22.997,22.192L23.029,22.155L23.065,22.114L23.09,22.078L23.127,22.041L23.163,22L23.199,22.032L23.247,22.063L23.283,22.094L23.335,22.121L23.371,22.148L23.418,22.179L23.461,22.206L23.508,22.226L23.544,22.253L23.591,22.268L23.643,22.289L23.686,22.31L23.733,22.325L23.774,22.346L23.826,22.362L23.873,22.377L23.925,22.393L23.977,22.398L24.025,22.414L24.077,22.419L24.134,22.419L24.181,22.434L24.462,22.434L24.509,22.425L24.561,22.414L24.597,22.409L24.64,22.393L24.676,22.373L24.723,22.341L24.75,22.305L24.77,22.264L24.786,22.216L24.786,22.096L24.765,22.049L24.74,22.008L24.708,21.977L24.661,21.945L24.625,21.93L24.578,21.909L24.526,21.888L24.469,21.863L24.432,21.852L24.391,21.841L24.339,21.825L24.303,21.816L24.251,21.8L24.199,21.795L24.146,21.774L24.094,21.769L24.037,21.754L23.99,21.743L23.938,21.727L23.886,21.716L23.834,21.701L23.787,21.685L23.735,21.674L23.694,21.658L23.599,21.627L23.547,21.606L23.495,21.591L23.391,21.548L23.344,21.523L23.292,21.496L23.256,21.471L23.208,21.444L23.172,21.419L23.125,21.392L23.057,21.324L23.021,21.293L22.958,21.22L22.931,21.184L22.911,21.148L22.879,21.1L22.864,21.064L22.816,20.939L22.807,20.887L22.796,20.84L22.796,20.793L22.785,20.741L22.785,20.528L22.796,20.424L22.807,20.381L22.816,20.334L22.832,20.293L22.843,20.241L22.864,20.205L22.884,20.152L22.905,20.111L22.925,20.059L22.952,20.023L22.988,19.982L23.015,19.939L23.056,19.903L23.087,19.867L23.119,19.824L23.166,19.788L23.198,19.761L23.239,19.73L23.322,19.678L23.369,19.651L23.464,19.604L23.505,19.589L23.552,19.573L23.604,19.552L23.656,19.537L23.693,19.526L23.74,19.515L23.781,19.504L23.828,19.493L23.88,19.482L23.984,19.473L24.032,19.468L24.073,19.448ZM11.755,19.484L12.698,19.484L12.741,19.579L12.761,19.62L12.777,19.672L12.798,19.719L12.813,19.76L12.84,19.807L12.871,19.902L12.898,19.949L12.939,20.042L12.95,20.083L13.033,20.271L13.049,20.318L13.07,20.361L13.095,20.408L13.106,20.455L13.133,20.507L13.142,20.554L13.19,20.647L13.21,20.684L13.231,20.736L13.247,20.788L13.262,20.824L13.289,20.876L13.305,20.919L13.325,20.971L13.341,21.007L13.362,21.059L13.409,21.152L13.424,21.199L13.435,21.247L13.456,21.294L13.481,21.335L13.502,21.387L13.523,21.434L13.538,21.475L13.581,21.57L13.596,21.617L13.617,21.664L13.633,21.711L13.653,21.752L13.68,21.8L13.7,21.847L13.721,21.888L13.732,21.94L13.773,22.033L13.794,22.076L13.809,22.123L13.852,22.216L13.877,22.268L13.888,22.309L13.915,22.362L13.924,22.398L13.945,22.45L13.972,22.502L13.992,22.538L14.008,22.59L14.029,22.633L14.044,22.685L14.071,22.721L14.102,22.825L14.123,22.862L14.143,22.914L14.17,22.955L14.191,23.007L14.2,23.054L14.216,23.095L14.237,23.142L14.262,23.185L13.221,23.185L13.196,23.142L13.18,23.095L13.159,23.048L13.139,22.996L13.128,22.955L13.085,22.862L13.07,22.819L13.029,22.726L13.013,22.685L12.992,22.633L12.961,22.538L12.94,22.497L11.492,22.497L11.472,22.544L11.456,22.587L11.435,22.639L11.415,22.686L11.404,22.727L11.383,22.779L11.363,22.82L11.347,22.867L11.326,22.91L11.306,22.962L11.29,22.998L11.269,23.05L11.254,23.102L11.233,23.139L11.217,23.191L10.186,23.191L10.201,23.143L10.244,23.05L10.259,22.998L10.275,22.957L10.302,22.91L10.322,22.863L10.343,22.82L10.354,22.773L10.374,22.721L10.401,22.68L10.421,22.633L10.453,22.538L10.5,22.445L10.516,22.398L10.536,22.357L10.552,22.309L10.615,22.169L10.636,22.117L10.651,22.076L10.667,22.029L10.694,21.986L10.714,21.934L10.73,21.887L10.746,21.846L10.766,21.794L10.793,21.757L10.809,21.705L10.829,21.664L10.845,21.617L10.866,21.565L10.891,21.524L10.907,21.472L10.927,21.435L10.943,21.383L10.964,21.331L10.984,21.295L11.005,21.243L11.021,21.2L11.041,21.148L11.057,21.112L11.084,21.06L11.104,21.008L11.125,20.967L11.136,20.92L11.156,20.872L11.183,20.825L11.203,20.784L11.214,20.732L11.235,20.685L11.256,20.642L11.297,20.549L11.312,20.508L11.355,20.404L11.375,20.367L11.396,20.315L11.412,20.274L11.427,20.222L11.448,20.175L11.475,20.134L11.495,20.082L11.511,20.045L11.527,19.993L11.547,19.952L11.574,19.905L11.59,19.853L11.605,19.81L11.626,19.758L11.646,19.722L11.673,19.67L11.689,19.618L11.704,19.582L11.725,19.53L11.755,19.484ZM14.683,19.511L15.714,19.511L15.746,19.552L15.798,19.636L15.823,19.683L15.85,19.719L15.875,19.766L15.902,19.807L15.927,19.855L15.954,19.896L15.979,19.932L16.006,19.979L16.031,20.022L16.068,20.063L16.083,20.104L16.115,20.151L16.14,20.194L16.172,20.23L16.193,20.277L16.218,20.318L16.25,20.361L16.265,20.402L16.302,20.449L16.379,20.574L16.4,20.615L16.431,20.656L16.458,20.697L16.483,20.745L16.562,20.869L16.587,20.917L16.614,20.958L16.645,20.917L16.666,20.864L16.697,20.828L16.724,20.781L16.749,20.745L16.77,20.693L16.806,20.656L16.833,20.609L16.854,20.573L16.879,20.53L16.911,20.483L16.936,20.447L16.963,20.395L16.988,20.359L17.02,20.311L17.04,20.275L17.067,20.223L17.092,20.192L17.119,20.149L17.15,20.097L17.177,20.061L17.197,20.014L17.229,19.977L17.254,19.925L17.281,19.894L17.312,19.853L17.339,19.801L17.364,19.764L17.391,19.717L17.416,19.681L17.443,19.629L17.474,19.592L17.495,19.545L17.522,19.509L18.569,19.509L18.569,23.228L17.589,23.228L17.589,21.04L17.564,21.077L17.532,21.129L17.507,21.16L17.475,21.201L17.455,21.253L17.423,21.29L17.398,21.326L17.366,21.378L17.314,21.451L17.283,21.492L17.256,21.544L17.225,21.581L17.198,21.617L17.178,21.669L17.146,21.705L17.121,21.742L17.089,21.794L17.064,21.83L17.032,21.871L17.007,21.918L16.986,21.955L16.955,21.996L16.928,22.043L16.897,22.079L16.865,22.122L16.845,22.163L16.818,22.21L16.787,22.247L16.755,22.288L16.735,22.34L16.698,22.371L16.678,22.412L16.646,22.465L16.621,22.501L16.6,22.501L16.569,22.454L16.542,22.411L16.517,22.364L16.49,22.328L16.459,22.281L16.432,22.24L16.401,22.197L16.374,22.156L16.349,22.109L16.286,22.025L16.265,21.984L16.234,21.937L16.207,21.901L16.182,21.854L16.15,21.811L16.125,21.759L16.093,21.723L16.068,21.676L16.041,21.633L16.016,21.586L15.984,21.55L15.959,21.503L15.927,21.462L15.907,21.419L15.875,21.378L15.85,21.331L15.818,21.295L15.793,21.247L15.761,21.206L15.741,21.159L15.704,21.123L15.684,21.075L15.652,21.034L15.652,23.227L14.689,23.227L14.689,19.544L14.683,19.511ZM19.307,19.511L22.24,19.511L22.24,20.35L20.281,20.35L20.281,20.949L22.041,20.949L22.041,21.741L20.281,21.741L20.281,22.376L22.265,22.376L22.265,23.22L19.312,23.22L19.312,19.543L19.307,19.511ZM12.213,20.651L12.197,20.698L12.182,20.741L12.161,20.793L12.14,20.84L12.125,20.887L12.082,20.98L12.062,21.032L12.046,21.075L12.03,21.127L12.01,21.163L11.994,21.215L11.973,21.267L11.953,21.304L11.937,21.356L11.917,21.397L11.901,21.449L11.874,21.496L11.863,21.537L11.843,21.589L11.822,21.637L11.806,21.678L11.786,21.73L12.645,21.73L12.625,21.678L12.609,21.631L12.568,21.536L12.552,21.489L12.531,21.448L12.516,21.396L12.495,21.349L12.479,21.302L12.459,21.259L12.443,21.212L12.422,21.16L12.407,21.119L12.364,21.026L12.355,20.978L12.334,20.931L12.313,20.879L12.298,20.843L12.255,20.739L12.24,20.692L12.213,20.651ZM10.683,27.615L21.364,27.615L15.912,29.412L10.683,27.615Z" style="fill-rule:nonzero;"/>
                </g>
            </g>
        </g>
    </g>
</svg>
