<?xml version="1.0" encoding="UTF-8" standalone="no"?>
<!DOCTYPE svg PUBLIC "-//W3C//DTD SVG 1.1//EN" "http://www.w3.org/Graphics/SVG/1.1/DTD/svg11.dtd">
<svg width="100%" height="100%" viewBox="0 0 455 513" version="1.1" xmlns="http://www.w3.org/2000/svg" xmlns:xlink="http://www.w3.org/1999/xlink" xml:space="preserve" xmlns:serif="http://www.serif.com/" style="fill-rule:evenodd;clip-rule:evenodd;stroke-linejoin:round;stroke-miterlimit:2;">
    <g transform="matrix(1,0,0,1,227.5,255.598)">
        <g transform="matrix(1,0,0,1,-227.5,-256.5)">
            <g transform="matrix(9.41754,0,0,9.41754,114.49,143.039)">
                <g>
                    <g>
                        <clipPath id="_clip1">
                            <rect x="0" y="0" width="24" height="24"/>
                        </clipPath>
                        <g clip-path="url(#_clip1)">
                            <path d="M10.584,17.209L9.704,14.817C9.704,14.817 8.274,16.412 6.131,16.412C4.234,16.412 2.887,14.762 2.887,12.123C2.887,8.742 4.591,7.532 6.269,7.532C8.688,7.532 9.457,9.099 10.118,11.106L10.998,13.856C11.877,16.523 13.526,18.667 18.282,18.667C21.691,18.667 24.001,17.623 24.001,14.874C24.001,12.647 22.736,11.493 20.372,10.942L18.612,10.557C17.403,10.282 17.046,9.787 17.046,8.963C17.046,8.028 17.788,7.478 18.998,7.478C20.317,7.478 21.032,7.973 21.142,9.155L23.891,8.825C23.671,6.351 21.967,5.334 19.162,5.334C16.688,5.334 14.269,6.269 14.269,9.265C14.269,11.135 15.176,12.317 17.457,12.867L19.326,13.306C20.728,13.636 21.195,14.213 21.195,15.011C21.195,16.028 20.206,16.441 18.337,16.441C15.561,16.441 14.405,14.984 13.746,12.977L12.839,10.228C11.684,6.654 9.842,5.334 6.186,5.334C2.145,5.333 -0,7.89 -0,12.233C-0,16.412 2.145,18.666 5.993,18.666C9.1,18.667 10.584,17.209 10.584,17.209Z" style="fill-rule:nonzero;"/>
                        </g>
                    </g>
                </g>
            </g>
        </g>
    </g>
</svg>
