<?xml version="1.0" encoding="UTF-8" standalone="no"?>
<!DOCTYPE svg PUBLIC "-//W3C//DTD SVG 1.1//EN" "http://www.w3.org/Graphics/SVG/1.1/DTD/svg11.dtd">
<svg width="100%" height="100%" viewBox="0 0 50 50" version="1.1" xmlns="http://www.w3.org/2000/svg" xmlns:xlink="http://www.w3.org/1999/xlink" xml:space="preserve" xmlns:serif="http://www.serif.com/" style="fill-rule:evenodd;clip-rule:evenodd;stroke-linejoin:round;stroke-miterlimit:2;">
    <g transform="matrix(0.651694,0,0,0.651694,8.70844,8.90405)">
        <path d="M47.092,7.838C47.092,7.838 47.096,7.842 47.098,7.843C47.104,7.849 47.115,7.859 47.129,7.873C48.29,9.036 49,10.652 49,12.41L49,15.859C49.011,15.946 49.011,16.033 49,16.119L49,39.5C49,41.421 47.421,43 45.5,43L38,43C37.451,43 37,42.549 37,42L37,25.373L25.594,33.805C25.242,34.064 24.758,34.064 24.406,33.805L13,25.373L13,42C13,42.549 12.549,43 12,43L4.5,43C2.579,43 1,41.421 1,39.5L1,16.139C0.985,16.041 0.985,15.942 1,15.844L1,12.41C1,10.63 1.731,9.006 2.908,7.846C3.835,6.931 5.029,6.46 6.248,6.406C7.467,6.353 8.71,6.719 9.734,7.477L12.199,9.301L11.949,9.301C12.191,9.314 12.419,9.415 12.592,9.584L25,18.756L37.525,9.496L40.271,7.469C41.295,6.713 42.536,6.349 43.754,6.402C44.972,6.456 46.165,6.926 47.092,7.838Z"/>
    </g>
</svg>
