<?xml version="1.0" encoding="UTF-8" standalone="no"?>
<!DOCTYPE svg PUBLIC "-//W3C//DTD SVG 1.1//EN" "http://www.w3.org/Graphics/SVG/1.1/DTD/svg11.dtd">
<svg width="100%" height="100%" viewBox="0 0 50 50" version="1.1" xmlns="http://www.w3.org/2000/svg" xmlns:xlink="http://www.w3.org/1999/xlink" xml:space="preserve" xmlns:serif="http://www.serif.com/" style="fill-rule:evenodd;clip-rule:evenodd;stroke-linejoin:round;stroke-miterlimit:2;">
    <path d="M25,11C33.194,11 40,16.724 40,23.963C40,31.201 33.194,36.926 25,36.926C23.918,36.926 22.886,36.786 21.879,36.598C19.895,37.826 17.482,38.675 15.174,39.084C15.117,39.094 15.059,39.099 15.001,39.099C14.452,39.099 14.001,38.648 14.001,38.099C14.001,37.83 14.109,37.573 14.301,37.385C15.234,36.474 15.98,35.501 16.572,34.561C12.681,32.245 10,28.423 10,23.963C10,16.724 16.806,11 25,11Z"/>
</svg>
