<?xml version="1.0" encoding="UTF-8" standalone="no"?>
<!DOCTYPE svg PUBLIC "-//W3C//DTD SVG 1.1//EN" "http://www.w3.org/Graphics/SVG/1.1/DTD/svg11.dtd">
<svg width="100%" height="100%" viewBox="0 0 455 513" version="1.1" xmlns="http://www.w3.org/2000/svg" xmlns:xlink="http://www.w3.org/1999/xlink" xml:space="preserve" xmlns:serif="http://www.serif.com/" style="fill-rule:evenodd;clip-rule:evenodd;stroke-linejoin:round;stroke-miterlimit:2;">
    <g transform="matrix(0.475952,0,0,0.475952,227.5,256.049)">
        <g transform="matrix(1,0,0,1,-400,-400)">
            <g transform="matrix(1,0,0,1,27.9833,5.61667)">
                <path d="M314.567,314.167L314.567,578.467C314.6,579.4 314.6,580.533 314.6,581.633C314.6,595.233 311.967,608.2 307.133,620.033L307.367,619.333C298.567,639.8 280.967,655.067 259.5,660.5L259,660.6C248.367,663.8 236.1,665.867 223.433,666.333L223.167,666.333C222.133,666.4 220.933,666.433 219.7,666.433C189.267,666.433 164.033,644.267 159.2,615.233L159.167,614.867C158.5,611.467 158.133,607.6 158.133,603.6C158.133,577.433 174.3,555 197.2,545.833L197.633,545.7C208.133,541.467 220.533,537.9 233.367,535.533L234.567,535.367C244.133,533.367 253.733,531.5 263.233,529.467C274.6,527.8 283.233,518.1 283.233,506.367L283.233,204.333C283.233,200.033 283.733,195.867 284.7,191.867L284.633,192.233C286.833,183.433 293.867,176.7 302.7,175L302.833,174.967C311.333,172.767 320,171.233 328.633,169.467C353.067,164.467 377.5,159.467 401.967,154.667L477.633,139.333C499.967,134.867 522.3,130.333 544.633,126C550.667,124.6 558.2,123.367 565.867,122.533L566.767,122.467C567.367,122.4 568.1,122.333 568.8,122.333C577.8,122.333 585.1,129.567 585.233,138.5C585.5,140.733 585.633,143.3 585.633,145.9L585.633,337L585.867,337.133L585.867,527.533C585.9,528.367 585.9,529.333 585.9,530.3C585.9,543.867 582.9,556.767 577.5,568.3L577.733,567.733C568.633,586.467 552.033,600.367 531.967,605.633L531.467,605.733C520.933,608.867 508.733,610.933 496.133,611.5L495.8,611.5C494.833,611.567 493.733,611.567 492.6,611.567C458.167,611.567 430.233,583.633 430.233,549.2C430.233,524.5 444.6,503.133 465.433,493.033L465.8,492.867C475.567,488.2 486.967,484.467 498.833,482.2L499.733,482.067C512.333,479.333 525,476.967 537.533,474.067C546.333,472.567 553.133,465.667 554.533,456.967L554.533,456.867C554.967,454.967 555.2,452.8 555.2,450.567L555.2,268.967C555.167,266.767 554.866,264.633 554.3,262.633C553.37,258.25 549.508,254.967 544.9,254.967C544.7,254.967 544.5,254.967 544.3,255L544.333,255C538.4,255.433 533,256.2 527.7,257.333L528.5,257.2C503.167,262.2 477.833,267.267 452.5,272.4L329.167,297.333C328.633,297.333 328.1,297.667 327.567,297.767C320.167,298.767 314.5,305.067 314.5,312.667C314.5,313.167 314.533,313.667 314.567,314.167Z"/>
            </g>
        </g>
    </g>
</svg>
