<?xml version="1.0" encoding="UTF-8" standalone="no"?>
<!DOCTYPE svg PUBLIC "-//W3C//DTD SVG 1.1//EN" "http://www.w3.org/Graphics/SVG/1.1/DTD/svg11.dtd">
<svg width="100%" height="100%" viewBox="0 0 1080 1080" version="1.1" xmlns="http://www.w3.org/2000/svg" xmlns:xlink="http://www.w3.org/1999/xlink" xml:space="preserve" xmlns:serif="http://www.serif.com/" style="fill-rule:evenodd;clip-rule:evenodd;stroke-linecap:round;stroke-linejoin:round;">
    <g transform="matrix(0.449963,0,0,0.449963,540,540)">
        <g transform="matrix(1,0,0,1,-800,-800)">
            <g transform="matrix(33.3333,0,0,33.3333,0,0)">
                <path d="M5.5,31.2L36.5,7.1C38.9,5.2 42.5,6.9 42.5,10L42.5,38C42.5,41.1 39,42.8 36.5,40.9L5.5,16.8" style="fill:none;fill-rule:nonzero;stroke:black;stroke-width:1px;"/>
            </g>
            <g transform="matrix(33.3333,0,0,33.3333,0,0)">
                <path d="M42.5,31.2L11.5,7.1C9.1,5.2 5.5,6.9 5.5,10L5.5,38C5.5,41.1 9,42.8 11.5,40.9L42.5,16.8" style="fill:none;fill-rule:nonzero;stroke:black;stroke-width:1px;"/>
            </g>
        </g>
    </g>
</svg>
