<?xml version="1.0" encoding="UTF-8" standalone="no"?>
<!DOCTYPE svg PUBLIC "-//W3C//DTD SVG 1.1//EN" "http://www.w3.org/Graphics/SVG/1.1/DTD/svg11.dtd">
<svg width="100%" height="100%" viewBox="0 0 455 513" version="1.1" xmlns="http://www.w3.org/2000/svg" xmlns:xlink="http://www.w3.org/1999/xlink" xml:space="preserve" xmlns:serif="http://www.serif.com/" style="fill-rule:evenodd;clip-rule:evenodd;stroke-linejoin:round;stroke-miterlimit:2;">
    <g transform="matrix(0.437556,0,0,0.437556,227.5,256.049)">
        <g transform="matrix(1,0,0,1,-400,-400)">
            <g>
                <path d="M113.325,495.64C52.444,495.623 11.766,452.485 11.766,400.174C11.766,347.859 52.547,304.223 113.237,304.36L686.767,304.36C747.457,304.223 788.238,347.859 788.238,400.174C788.238,452.485 747.552,495.623 686.667,495.64L113.325,495.64ZM113.516,327.896C65.318,327.979 35.726,360.198 35.726,400.046C35.726,439.889 65.127,472.361 113.516,472.182L686.476,472.182C734.861,472.361 764.278,439.889 764.278,400.046C764.278,360.198 734.682,327.984 686.476,327.896L113.516,327.896ZM88.8,354.815L116.84,354.815L155.666,417.602L155.645,354.815L183.473,354.815L183.473,444.869L155.683,444.869L116.661,382.079L116.661,444.869L88.788,444.869L88.8,354.815ZM334.823,364.087L361.925,364.087L361.925,376.202L376.588,376.202L376.588,385.096L361.925,385.096L361.942,444.869L334.823,444.869L334.836,385.096L320.119,385.096L320.119,376.21L334.844,376.21L334.823,364.087ZM198.979,384.988L226.06,384.988L226.06,444.869L198.979,444.869L198.979,384.988ZM198.921,354.799L226.06,354.799L226.06,373.21L198.921,373.21L198.921,354.799ZM684.38,414.447C684.38,414.447 684.364,423.487 684.364,427.127C684.364,436.668 678.732,440.615 673.291,440.615C667.874,440.615 662.201,436.668 662.201,427.127C662.201,423.487 662.218,414.223 662.218,414.223C662.218,414.223 662.242,405.371 662.242,401.731C662.242,392.226 667.891,388.317 673.291,388.317C678.69,388.317 684.364,392.226 684.364,401.731C684.364,405.371 684.364,412.073 684.38,414.489L684.38,414.447ZM673.502,380.896C651.655,380.896 633.946,395.953 633.946,414.53C633.946,433.095 651.659,448.148 673.502,448.148C695.374,448.148 713.084,433.095 713.084,414.53C713.084,395.953 695.374,380.896 673.502,380.896ZM598.394,354.815L625.118,354.815L625.118,444.853L598.352,444.853L598.336,441.408C587.985,447.907 576.273,447.891 567.158,443.653C564.718,442.512 548.636,434.792 548.636,413.97C548.636,398.149 563.56,380.896 583.063,382.606C589.491,383.179 594.053,385.52 598.39,387.947L598.394,354.815ZM598.589,425.242L598.589,403.926C598.589,394.663 592.202,392.305 587.985,392.305C583.664,392.305 577.356,394.663 577.356,403.926C577.356,406.981 577.372,414.601 577.372,414.601C577.372,414.601 577.356,422.051 577.356,425.242C577.356,434.497 583.664,436.913 587.985,436.913C592.202,436.913 598.589,434.497 598.589,425.242ZM289.448,382.22C299.566,381.942 320.119,388.57 319.969,412.285C319.94,416.485 319.961,444.857 319.961,444.857L293.059,444.857L293.059,405.532C293.059,400.307 288.066,394.501 280.695,394.501C273.311,394.501 267.833,400.307 267.833,405.532L267.862,444.857L240.972,444.857L240.951,384.98L267.858,384.959C267.858,384.959 267.829,389.782 267.858,391.251C273.691,385.68 281.385,382.461 289.448,382.22ZM509.527,382.22C519.629,381.942 540.177,388.57 540.049,412.285C540.007,416.485 540.024,444.857 540.024,444.857L513.121,444.857L513.121,405.532C513.121,400.307 508.137,394.501 500.757,394.501C493.378,394.501 487.883,400.307 487.883,405.532L487.925,444.857L461.043,444.857L461.06,384.98L487.925,384.959C487.925,384.959 487.883,389.782 487.925,391.251C493.76,385.676 501.46,382.457 509.527,382.22ZM401.818,405.856C401.768,400.618 401.876,397.116 403.594,394.102C405.727,390.417 409.616,388.661 413.136,388.645L413.119,388.645C416.664,388.661 420.528,390.417 422.644,394.102C424.362,397.111 424.462,400.618 424.421,405.856L401.818,405.856ZM424.304,423.918C424.304,423.918 424.329,424.184 424.329,427.558C424.329,438.511 417.124,440.951 413.136,440.951C409.131,440.951 401.797,438.511 401.797,427.558C401.797,424.267 401.839,415.19 401.839,415.19C401.839,415.19 452.834,415.207 452.834,415.19C452.834,396.613 434.913,381.228 412.887,381.228C390.873,381.228 373.015,396.285 373.015,414.842C373.015,433.423 390.873,448.48 412.887,448.48C431.156,448.48 446.583,438.046 451.31,423.893L424.304,423.918ZM714.968,376.244L711.847,376.244L711.847,355.737L719.67,355.737C724.501,355.737 726.909,357.526 726.909,361.564C726.909,365.229 724.605,366.826 721.584,367.212L727.411,376.244L723.941,376.244L718.525,367.349L714.968,367.349L714.968,376.244ZM718.679,364.714C721.314,364.714 723.646,364.531 723.646,361.377C723.646,358.841 721.343,358.364 719.197,358.364L714.964,358.364L714.964,364.714L718.679,364.714ZM700.658,365.934C700.658,355.733 708.942,348.208 718.72,348.208C728.415,348.208 736.674,355.737 736.674,365.934C736.674,376.239 728.415,383.76 718.72,383.76C708.942,383.76 700.658,376.244 700.658,365.934ZM718.72,380.796C726.768,380.796 733.101,374.496 733.101,365.934C733.101,357.526 726.772,351.167 718.72,351.167C710.59,351.167 704.244,357.526 704.244,365.934C704.244,374.5 710.59,380.796 718.72,380.796Z"/>
            </g>
        </g>
    </g>
</svg>
