<?xml version="1.0" encoding="UTF-8" standalone="no"?>
<!DOCTYPE svg PUBLIC "-//W3C//DTD SVG 1.1//EN" "http://www.w3.org/Graphics/SVG/1.1/DTD/svg11.dtd">
<svg width="100%" height="100%" viewBox="0 0 455 513" version="1.1" xmlns="http://www.w3.org/2000/svg" xmlns:xlink="http://www.w3.org/1999/xlink" xml:space="preserve" xmlns:serif="http://www.serif.com/" style="fill-rule:evenodd;clip-rule:evenodd;stroke-linejoin:round;stroke-miterlimit:2;">
    <g transform="matrix(6.04265,0,0,6.04265,227.5,256.049)">
        <g transform="matrix(1,0,0,1,-32,-32)">
            <clipPath id="_clip1">
                <rect x="0" y="0" width="64" height="64"/>
            </clipPath>
            <g clip-path="url(#_clip1)">
                <g transform="matrix(9.76056,0,0,9.76056,0.0146408,0)">
                    <path d="M13.038,4.512C12.925,4.29 12.793,4.066 12.535,4.066C12.485,4.065 12.436,4.075 12.391,4.096L12.303,3.92C12.41,3.828 12.583,3.756 12.805,3.756C13.15,3.756 13.328,3.922 13.468,4.136C13.552,3.956 13.591,3.71 13.591,3.406C13.591,2.648 13.354,2.259 12.791,2.259C12.246,2.259 12.011,2.659 12.011,3.406C12.011,4.153 12.247,4.546 12.791,4.546C12.871,4.547 12.951,4.537 13.028,4.516L13.038,4.512ZM13.173,4.776C13.051,4.809 12.926,4.826 12.8,4.826C12.074,4.826 11.363,4.246 11.363,3.404C11.363,2.554 12.063,1.974 12.8,1.974C13.538,1.974 14.243,2.55 14.243,3.404C14.243,3.88 14.021,4.266 13.699,4.516C13.803,4.672 13.911,4.776 14.059,4.776C14.222,4.776 14.289,4.65 14.299,4.551L14.511,4.551C14.523,4.683 14.458,5.229 13.864,5.229C13.504,5.229 13.314,5.021 13.172,4.776L13.173,4.776ZM14.71,4.053L14.71,3.08C14.71,2.98 14.67,2.92 14.542,2.92L14.406,2.92L14.406,2.66L15.293,2.66L15.293,4.04C15.293,4.273 15.419,4.376 15.611,4.376C15.768,4.376 15.926,4.306 16.011,4.146L16.011,3.08C16.011,2.98 15.971,2.92 15.843,2.92L15.7,2.92L15.7,2.66L16.595,2.66L16.595,4.107C16.595,4.251 16.648,4.307 16.813,4.307L16.843,4.307L16.843,4.574L16.043,4.701L16.043,4.426L16.027,4.426C15.862,4.633 15.608,4.751 15.343,4.742C14.993,4.742 14.713,4.565 14.713,4.042L14.71,4.053ZM18.003,4.493C18.318,4.493 18.438,4.219 18.443,3.667C18.449,3.127 18.317,2.867 18.003,2.867C17.728,2.867 17.555,3.129 17.555,3.667C17.555,4.219 17.725,4.493 18.003,4.493ZM18.003,4.753C17.998,4.753 17.994,4.753 17.989,4.753C17.402,4.753 16.919,4.27 16.919,3.683C16.919,3.678 16.919,3.673 16.919,3.668C16.919,3.031 17.421,2.608 18.003,2.608C18.61,2.608 19.096,3.04 19.096,3.668C19.096,4.318 18.61,4.753 18.003,4.753ZM19.115,4.713L19.115,4.453L19.201,4.453C19.415,4.453 19.435,4.391 19.435,4.206L19.435,3.08C19.435,2.98 19.377,2.92 19.235,2.92L19.12,2.92L19.12,2.66L19.932,2.66L19.972,3.083L20,3.083C20.1,2.779 20.333,2.618 20.56,2.618C20.748,2.618 20.894,2.725 20.894,2.941C20.894,3.091 20.822,3.241 20.619,3.241C20.437,3.241 20.401,3.118 20.249,3.118C20.115,3.118 20.011,3.246 20.011,3.433L20.011,4.193C20.011,4.378 20.056,4.44 20.266,4.44L20.386,4.44L20.386,4.7L19.113,4.7L19.115,4.713ZM21.82,4.413C22.08,4.413 22.186,4.168 22.186,3.921L22.186,3.591C21.986,3.787 21.556,3.794 21.556,4.143C21.556,4.313 21.658,4.413 21.819,4.413L21.82,4.413ZM22.198,4.412C22.091,4.618 21.872,4.756 21.565,4.756C21.209,4.756 20.979,4.556 20.979,4.234C20.979,3.564 21.912,3.742 22.186,3.298L22.186,3.25C22.186,2.91 22.052,2.855 21.904,2.855C21.489,2.855 21.678,3.301 21.296,3.301C21.112,3.301 21.041,3.201 21.041,3.066C21.041,2.814 21.341,2.61 21.908,2.61C22.444,2.61 22.773,2.758 22.773,3.29L22.773,4.14C22.773,4.272 22.821,4.343 22.936,4.343C22.979,4.344 23.022,4.331 23.058,4.307L23.128,4.474C23.072,4.56 22.922,4.712 22.628,4.712C22.381,4.712 22.228,4.597 22.206,4.409L22.2,4.409L22.198,4.412ZM3.474,5.112C3.247,4.665 2.98,4.212 2.46,4.212C2.357,4.211 2.255,4.231 2.16,4.27L1.983,3.916C2.198,3.731 2.546,3.586 2.983,3.586C3.678,3.586 4.035,3.921 4.319,4.349C4.487,3.984 4.567,3.491 4.567,2.879C4.567,1.353 4.09,0.579 2.975,0.579C1.875,0.579 1.402,1.363 1.402,2.879C1.402,4.395 1.877,5.172 2.975,5.172C3.136,5.174 3.297,5.153 3.453,5.11L3.474,5.112ZM3.746,5.645C3.501,5.711 3.249,5.744 2.996,5.745C1.533,5.746 0.1,4.578 0.1,2.88C0.1,1.167 1.533,0 2.996,0C4.483,0 5.9,1.16 5.9,2.88C5.907,3.757 5.501,4.587 4.805,5.12C5.005,5.434 5.231,5.643 5.532,5.643C5.86,5.643 5.992,5.389 6.015,5.19L6.443,5.19C6.468,5.455 6.335,6.556 5.14,6.556C4.416,6.556 4.033,6.136 3.746,5.644L3.746,5.645Z" style="fill-rule:nonzero;"/>
                </g>
            </g>
        </g>
    </g>
</svg>
