<?xml version="1.0" encoding="UTF-8" standalone="no"?>
<!DOCTYPE svg PUBLIC "-//W3C//DTD SVG 1.1//EN" "http://www.w3.org/Graphics/SVG/1.1/DTD/svg11.dtd">
<svg width="100%" height="100%" viewBox="0 0 455 513" version="1.1" xmlns="http://www.w3.org/2000/svg" xmlns:xlink="http://www.w3.org/1999/xlink" xml:space="preserve" xmlns:serif="http://www.serif.com/" style="fill-rule:evenodd;clip-rule:evenodd;stroke-linejoin:round;stroke-miterlimit:2;">
    <g transform="matrix(0.327564,0,0,0.327564,227.5,256.049)">
        <g transform="matrix(1,0,0,1,-400,-400)">
            <clipPath id="_clip1">
                <rect x="0" y="0" width="800" height="800"/>
            </clipPath>
            <g clip-path="url(#_clip1)">
                <g id="icons" transform="matrix(40,0,0,40,-3360,-292760)">
                    <g id="Page-1">
                        <g id="Dribbble-Light-Preview">
                            <g id="icons1" serif:id="icons">
                                <path id="spotify---162-" serif:id="spotify-[#162]" d="M99.915,7327.86C96.692,7325.95 91.375,7325.78 88.297,7326.71C87.803,7326.86 87.281,7326.58 87.131,7326.09C86.981,7325.59 87.26,7325.07 87.754,7324.92C91.287,7323.85 97.159,7324.05 100.87,7326.26C101.314,7326.52 101.46,7327.09 101.196,7327.54C100.934,7327.98 100.358,7328.13 99.915,7327.86ZM99.81,7330.7C99.584,7331.07 99.104,7331.18 98.737,7330.96C96.05,7329.31 91.952,7328.83 88.773,7329.79C88.36,7329.92 87.925,7329.68 87.8,7329.27C87.676,7328.86 87.908,7328.43 88.32,7328.3C91.951,7327.2 96.466,7327.73 99.553,7329.63C99.92,7329.85 100.035,7330.33 99.81,7330.7ZM98.586,7333.42C98.406,7333.72 98.023,7333.81 97.729,7333.63C95.381,7332.19 92.425,7331.87 88.944,7332.67C88.609,7332.74 88.274,7332.53 88.198,7332.2C88.121,7331.86 88.33,7331.53 88.667,7331.45C92.476,7330.58 95.743,7330.95 98.379,7332.57C98.673,7332.75 98.766,7333.13 98.586,7333.42ZM94,7319C88.477,7319 84,7323.48 84,7329C84,7334.52 88.477,7339 94,7339C99.523,7339 104,7334.52 104,7329C104,7323.48 99.523,7319 94,7319L94,7319Z"/>
                            </g>
                        </g>
                    </g>
                </g>
            </g>
        </g>
    </g>
</svg>
