<?xml version="1.0" encoding="UTF-8" standalone="no"?>
<!DOCTYPE svg PUBLIC "-//W3C//DTD SVG 1.1//EN" "http://www.w3.org/Graphics/SVG/1.1/DTD/svg11.dtd">
<svg width="100%" height="100%" viewBox="0 0 455 513" version="1.1" xmlns="http://www.w3.org/2000/svg" xmlns:xlink="http://www.w3.org/1999/xlink" xml:space="preserve" xmlns:serif="http://www.serif.com/" style="fill-rule:evenodd;clip-rule:evenodd;stroke-linejoin:round;stroke-miterlimit:2;">
    <g transform="matrix(0.425924,0,0,0.425924,227.5,256.049)">
        <g transform="matrix(1,0,0,1,-400,-400)">
            <clipPath id="_clip1">
                <rect x="0" y="0" width="800" height="800"/>
            </clipPath>
            <g clip-path="url(#_clip1)">
                <g transform="matrix(26.7246,0,0,26.6764,-27.5798,-26.7832)">
                    <path d="M18.102,12.129L18.102,12.128C18.102,10.564 19.37,9.297 20.933,9.297C22.496,9.297 23.764,10.565 23.764,12.128C23.764,13.692 22.497,14.959 20.933,14.959L20.931,14.959C19.368,14.959 18.101,13.692 18.101,12.129L18.101,12.128L18.102,12.129ZM24.691,12.135C24.691,10.054 23.004,8.367 20.923,8.367C18.842,8.367 17.155,10.054 17.155,12.135C17.155,14.216 18.842,15.903 20.923,15.903C23.003,15.9 24.688,14.215 24.691,12.136L24.691,12.135ZM10.427,23.76L8.586,22.998C9.11,24.076 10.197,24.806 11.454,24.806C12.771,24.806 13.902,24.005 14.384,22.863L14.392,22.842C14.547,22.48 14.638,22.058 14.638,21.616C14.638,19.859 13.214,18.435 11.457,18.435C11.052,18.435 10.665,18.511 10.309,18.648L10.331,18.641L12.234,19.428C13.086,19.792 13.673,20.624 13.673,21.592C13.673,22.888 12.622,23.939 11.326,23.939C11.002,23.939 10.694,23.873 10.413,23.755L10.428,23.761L10.427,23.76ZM15.974,1.004C8.117,1.005 1.673,7.05 1.036,14.742L1.032,14.796L9.07,18.118C9.738,17.656 10.565,17.381 11.457,17.381L11.459,17.381C11.538,17.381 11.615,17.386 11.694,17.389L15.269,12.213L15.269,12.139C15.272,9.019 17.802,6.491 20.922,6.491C24.044,6.491 26.575,9.022 26.575,12.144C26.575,15.266 24.044,17.797 20.922,17.797L20.791,17.797L15.697,21.435C15.697,21.5 15.702,21.566 15.702,21.634L15.702,21.637C15.702,23.979 13.803,25.878 11.461,25.878C9.414,25.878 7.705,24.427 7.308,22.498L7.303,22.471L1.548,20.088C3.389,26.433 9.149,30.993 15.973,30.993C24.254,30.993 30.967,24.28 30.967,15.999C30.967,7.718 24.254,1.005 15.973,1.005L15.972,1.005L15.974,1.004Z" style="fill-rule:nonzero;"/>
                </g>
            </g>
        </g>
    </g>
</svg>
