<?xml version="1.0" encoding="UTF-8" standalone="no"?>
<!DOCTYPE svg PUBLIC "-//W3C//DTD SVG 1.1//EN" "http://www.w3.org/Graphics/SVG/1.1/DTD/svg11.dtd">
<svg width="100%" height="100%" viewBox="0 0 455 513" version="1.1" xmlns="http://www.w3.org/2000/svg" xmlns:xlink="http://www.w3.org/1999/xlink" xml:space="preserve" xmlns:serif="http://www.serif.com/" style="fill-rule:evenodd;clip-rule:evenodd;stroke-linejoin:round;stroke-miterlimit:2;">
    <g transform="matrix(0.337157,0,0,0.337157,227.5,256.049)">
        <g transform="matrix(1,0,0,1,-495.422,-121.5)">
            <clipPath id="_clip1">
                <rect x="0" y="0" width="990.844" height="243"/>
            </clipPath>
            <g clip-path="url(#_clip1)">
                <g id="Layer-1" serif:id="Layer 1" transform="matrix(1,0,0,1,-464.578,-417.98)">
                    <path id="path6" d="M1347.52,455.963C1329.6,455.963 1308.97,459.704 1301.5,467.219C1294.06,474.734 1290.33,487.618 1290.33,505.84L1290.33,574.313C1290.33,592.127 1294.03,604.692 1301.5,612.004C1308.97,619.315 1329.6,622.971 1347.52,622.971C1365.44,622.971 1386.07,619.315 1393.54,612.004C1400.98,604.692 1404.71,592.156 1404.71,574.313L1404.71,505.838C1404.71,487.617 1401.01,474.763 1393.54,467.219C1386.07,459.675 1365.44,455.963 1347.52,455.963Z" style="fill:none;fill-rule:nonzero;"/>
                    <path id="path5" d="M1146.45,422.008L1146.45,605.549C1146.45,605.549 1142.74,595.626 1133.95,585.799C1128.69,579.929 1124.42,576.51 1120.45,573.338C1112.66,567.1 1106.05,561.812 1095.51,540.703C1089.25,528.161 1087.34,517.249 1085.45,506.426C1083.71,496.454 1081.98,486.56 1076.87,475.537C1067.46,455.251 1046.33,422.01 1046.33,422.01L977.428,422.01L977.428,656.955L1020.81,656.955L1020.81,473.992C1020.81,473.992 1027.25,493.204 1042.05,509.785C1049.55,518.198 1057.24,523.495 1064.23,528.314C1072.74,534.175 1080.21,539.329 1085.08,548.516C1091.07,559.803 1092.29,570.112 1093.67,581.686C1094.74,590.625 1095.89,600.32 1099.4,611.805C1109.04,643.381 1120.93,656.955 1120.93,656.955L1189.55,656.955L1189.55,422.008L1146.45,422.008Z"/>
                    <path id="path4" d="M711.633,421.986L711.633,572.166C711.633,602.486 719.348,624.829 734.777,639.307C750.206,653.756 783.325,660.98 818.301,660.98L818.359,660.98C853.335,660.98 886.425,653.756 901.883,639.307C917.312,624.858 926.477,602.428 925.027,572.166C924.714,565.628 923.574,556.31 922.385,546.605L922.383,546.603C920.813,533.785 919.161,520.294 919.227,511.641C919.292,504.457 920.848,493.375 922.344,482.723C923.543,474.186 924.704,465.927 925.027,460.17C925.549,450.624 925.027,421.986 925.027,421.986L874.912,421.986C874.912,421.986 872.534,450.943 874.912,460.17C876.567,466.616 882.409,474.738 888.42,483.096C895.992,493.623 903.833,504.523 903.914,512.918C903.995,521.306 896.147,532.755 888.533,543.865C882.478,552.7 876.569,561.321 874.912,568.018C873.254,574.737 872.363,580.862 871.57,586.316C870.2,595.745 869.122,603.162 864.877,608.144C858.178,616.007 837.414,619.953 818.33,619.953C799.247,619.953 778.482,616.036 771.783,608.144C765.083,600.281 761.748,586.877 761.748,568.018L761.748,421.986L711.633,421.986Z"/>
                    <path id="path3" d="M563.16,419.316C533.04,419.316 510.162,426.251 494.496,440.033C478.859,453.844 471.012,471.253 471.012,492.23C471.012,511.67 476.695,526.208 488.033,535.928C499.371,545.648 518.846,552.64 546.428,556.963C575.163,561.867 594.003,566.334 602.889,570.367C611.804,574.371 616.246,580.93 616.246,589.924C616.246,599.934 612.41,607.565 604.793,612.875C597.176,618.155 586.011,620.795 571.355,620.795C552.977,620.795 536.589,618.184 522.221,612.875C507.853,607.594 494.409,599.643 481.887,589.053L464.578,622.885C477.272,635.448 492.332,644.703 509.758,650.68C527.184,656.657 545.561,659.646 564.92,659.646L564.92,659.588C596.627,659.588 621.411,653.118 639.328,640.178C657.215,627.237 666.188,609.101 666.188,585.773C666.188,566.362 660.618,551.653 649.453,541.672C638.288,531.661 619.132,524.322 591.926,519.621C562.584,514.515 543.369,509.958 534.281,506.012C525.193,502.066 520.635,495.567 520.635,486.514C520.635,476.852 524.356,469.714 531.799,465.102C539.243,460.488 549.399,458.168 562.324,458.168C576.201,458.168 589.559,460.517 602.369,465.16C615.178,469.831 627.469,476.619 639.211,485.527L654.473,453.176C644.895,442.557 631.826,434.288 615.295,428.311C598.706,422.305 581.365,419.316 563.16,419.316L563.16,419.316Z"/>
                    <path id="path2" d="M1349.29,417.98C1311.17,417.98 1263.03,422.015 1248.82,466.35C1241.29,489.826 1249.26,502.484 1257.21,515.121C1262.74,523.912 1268.26,532.693 1268.56,545.096C1268.88,558.773 1263.92,570.431 1259.19,581.527C1251.23,600.187 1243.96,617.256 1263.67,639.654C1282.25,660.748 1316.58,660.98 1348.94,660.98C1381.33,660.98 1413.71,653.756 1430.42,639.336C1447.06,624.915 1455.42,604.46 1455.42,577.998L1455.42,502.125C1455.42,475.286 1447.12,454.54 1430.53,439.887L1430.59,439.916C1414.03,425.293 1381.64,417.98 1349.29,417.98L1349.29,417.98ZM1347.52,455.963C1365.44,455.963 1386.07,459.675 1393.54,467.219C1401.01,474.763 1404.71,487.617 1404.71,505.838L1404.71,574.313C1404.71,592.156 1400.98,604.692 1393.54,612.004C1386.07,619.315 1365.44,622.971 1347.52,622.971C1329.6,622.971 1308.97,619.315 1301.5,612.004C1294.03,604.692 1290.33,592.127 1290.33,574.313L1290.33,505.84C1290.33,487.618 1294.06,474.734 1301.5,467.219C1308.97,459.704 1329.6,455.963 1347.52,455.963Z"/>
                </g>
            </g>
        </g>
    </g>
</svg>
