<?xml version="1.0" encoding="UTF-8" standalone="no"?>
<!DOCTYPE svg PUBLIC "-//W3C//DTD SVG 1.1//EN" "http://www.w3.org/Graphics/SVG/1.1/DTD/svg11.dtd">
<svg width="100%" height="100%" viewBox="0 0 1080 1080" version="1.1" xmlns="http://www.w3.org/2000/svg" xmlns:xlink="http://www.w3.org/1999/xlink" xml:space="preserve" xmlns:serif="http://www.serif.com/" style="fill-rule:evenodd;clip-rule:evenodd;stroke-linejoin:round;stroke-miterlimit:2;">
    <g id="Threads" transform="matrix(1.15349,0,0,1.15349,286.232,245.036)">
        <path d="M342.383,237.038C340.169,235.976 337.933,234.961 335.676,233.992C331.728,161.255 291.984,119.613 225.247,119.187C186.742,118.932 152.275,134.632 130.793,167.228L167.495,192.406C182.76,169.247 206.716,164.31 224.359,164.31C224.563,164.31 224.767,164.31 224.969,164.312C246.943,164.452 263.524,170.841 274.256,183.299C282.066,192.37 287.29,204.905 289.877,220.724C270.394,217.413 249.324,216.395 226.8,217.686C163.35,221.341 122.56,258.347 125.299,309.766C126.69,335.849 139.684,358.289 161.886,372.947C180.658,385.338 204.836,391.397 229.963,390.026C263.146,388.207 289.178,375.546 307.34,352.396C321.133,334.816 329.856,312.033 333.708,283.327C349.522,292.871 361.243,305.43 367.715,320.527C378.721,346.192 379.363,388.367 344.951,422.75C314.801,452.871 278.559,465.901 223.787,466.304C163.029,465.854 117.079,446.369 87.204,408.389C59.228,372.827 44.77,321.459 44.231,255.715C44.77,189.969 59.228,138.601 87.204,103.039C117.079,65.06 163.028,45.576 223.786,45.125C284.983,45.58 331.734,65.158 362.753,103.32C377.963,122.033 389.429,145.568 396.989,173.008L440,161.532C430.837,127.757 416.418,98.651 396.797,74.515C357.031,25.59 298.872,0.519 223.936,0L223.636,0C148.851,0.518 91.344,25.683 52.709,74.795C18.331,118.499 0.598,179.308 0.002,255.535L0,255.715L0.002,255.895C0.598,332.12 18.331,392.932 52.709,436.636C91.344,485.746 148.851,510.913 223.636,511.43L223.936,511.43C290.422,510.968 337.288,493.562 375.896,454.988C426.406,404.525 424.886,341.27 408.238,302.439C396.293,274.592 373.522,251.976 342.383,237.038ZM227.587,344.967C199.779,346.534 170.888,334.051 169.463,307.316C168.407,287.493 183.571,265.374 229.294,262.739C234.429,262.44 239.572,262.29 244.716,262.289C261.325,262.289 276.861,263.902 290.987,266.99C285.719,332.788 254.815,343.473 227.587,344.967Z" style="fill-rule:nonzero;stroke:black;stroke-width:13.1px;"/>
    </g>
</svg>
