<?xml version="1.0" encoding="UTF-8" standalone="no"?>
<!DOCTYPE svg PUBLIC "-//W3C//DTD SVG 1.1//EN" "http://www.w3.org/Graphics/SVG/1.1/DTD/svg11.dtd">
<svg width="100%" height="100%" viewBox="0 0 455 513" version="1.1" xmlns="http://www.w3.org/2000/svg" xmlns:xlink="http://www.w3.org/1999/xlink" xml:space="preserve" xmlns:serif="http://www.serif.com/" style="fill-rule:evenodd;clip-rule:evenodd;stroke-linejoin:round;stroke-miterlimit:2;">
    <g transform="matrix(0.397905,0,0,0.397905,227.5,256.049)">
        <g transform="matrix(1,0,0,1,-400,-400)">
            <clipPath id="_clip1">
                <rect x="0" y="0" width="800" height="800"/>
            </clipPath>
            <g clip-path="url(#_clip1)">
                <g transform="matrix(25,0,0,25,0,0)">
                    <path d="M16.016,5.323L10.677,10.662L5.338,5.323L-0.001,10.662L5.338,16.001L10.677,10.662L16.016,16.001L10.677,21.34L16.016,26.679L21.355,21.34L16.016,16.001L21.355,10.662L16.016,5.323ZM21.391,10.661L26.693,5.354L32,10.661L26.693,15.968L21.391,10.661Z" style="fill-rule:nonzero;"/>
                </g>
            </g>
        </g>
    </g>
</svg>
