<?xml version="1.0" encoding="UTF-8" standalone="no"?>
<!DOCTYPE svg PUBLIC "-//W3C//DTD SVG 1.1//EN" "http://www.w3.org/Graphics/SVG/1.1/DTD/svg11.dtd">
<svg width="100%" height="100%" viewBox="0 0 455 513" version="1.1" xmlns="http://www.w3.org/2000/svg" xmlns:xlink="http://www.w3.org/1999/xlink" xml:space="preserve" xmlns:serif="http://www.serif.com/" style="fill-rule:evenodd;clip-rule:evenodd;stroke-linejoin:round;stroke-miterlimit:2;">
    <g transform="matrix(0.739426,0,0,0.739426,59.2807,66.7198)">
        <path d="M321.331,0.011L239.449,0.011L239.449,347.898C239.449,393.488 206.698,422.816 166.867,422.816C127.035,422.816 91.629,393.489 91.629,347.898C91.629,295.225 132.794,267.413 187.673,273.171L187.673,185.018C179.707,183.685 171.741,183.248 165.097,183.248C75.249,183.248 0,255.393 0,344.794C0,439.516 74.353,512.098 165.534,512.098C245.646,512.098 330.631,453.23 330.631,342.138L330.631,161.109C366.037,196.515 408.972,207.585 455,207.585L455,126.14C398.35,122.151 335.494,84.975 321.331,0L321.331,0.011Z" style="fill-rule:nonzero;"/>
    </g>
</svg>
