<?xml version="1.0" encoding="UTF-8" standalone="no"?>
<!DOCTYPE svg PUBLIC "-//W3C//DTD SVG 1.1//EN" "http://www.w3.org/Graphics/SVG/1.1/DTD/svg11.dtd">
<svg width="100%" height="100%" viewBox="0 0 455 513" version="1.1" xmlns="http://www.w3.org/2000/svg" xmlns:xlink="http://www.w3.org/1999/xlink" xml:space="preserve" xmlns:serif="http://www.serif.com/" style="fill-rule:evenodd;clip-rule:evenodd;stroke-linejoin:round;stroke-miterlimit:2;">
    <g transform="matrix(0.425924,0,0,0.425924,227.5,256.049)">
        <g transform="matrix(1,0,0,1,-400,-400)">
            <g transform="matrix(26.6312,0,0,26.6312,-26.0985,-26.0985)">
                <path d="M16,5.425C14.112,4.3 11.894,3.503 9.527,3.176L9.435,3.166C9.365,3.161 9.283,3.158 9.201,3.158C8.588,3.158 8.013,3.318 7.514,3.599L7.531,3.59C9.888,1.956 12.808,0.98 15.957,0.98L16.018,0.98C19.175,0.98 22.104,1.956 24.519,3.622L24.469,3.589C23.991,3.317 23.418,3.156 22.807,3.156C22.722,3.156 22.638,3.159 22.555,3.165L22.566,3.164C20.107,3.5 17.889,4.294 15.918,5.461L16,5.416L16,5.425ZM5.554,5.268C5.513,5.282 5.477,5.3 5.444,5.322L5.446,5.321C2.688,8.044 0.98,11.825 0.98,16.005C0.98,19.589 2.236,22.88 4.333,25.462L4.311,25.434C2.557,22.173 8.791,12.979 11.921,9.275C8.391,5.754 6.644,5.213 5.906,5.213C5.896,5.213 5.885,5.212 5.874,5.212C5.759,5.212 5.649,5.233 5.548,5.272L5.554,5.27L5.554,5.268ZM20.083,9.275C23.212,12.981 29.45,22.183 27.688,25.436C29.763,22.882 31.02,19.591 31.02,16.006C31.02,11.825 29.311,8.044 26.553,5.322L26.551,5.32C26.522,5.299 26.488,5.281 26.451,5.268L26.448,5.267C26.348,5.231 26.232,5.211 26.112,5.211L26.096,5.211L26.097,5.211C25.356,5.211 23.612,5.754 20.083,9.274L20.083,9.275ZM6.114,27.306C8.741,29.612 12.207,31.02 16.002,31.02C19.797,31.02 23.263,29.613 25.907,27.292L25.89,27.307C28.239,24.914 20.488,16.406 16,13.017C11.517,16.407 3.76,24.914 6.114,27.307L6.114,27.306Z" style="fill-rule:nonzero;"/>
            </g>
        </g>
    </g>
</svg>
