<?xml version="1.0" encoding="UTF-8" standalone="no"?>
<!DOCTYPE svg PUBLIC "-//W3C//DTD SVG 1.1//EN" "http://www.w3.org/Graphics/SVG/1.1/DTD/svg11.dtd">
<svg width="100%" height="100%" viewBox="0 0 455 513" version="1.1" xmlns="http://www.w3.org/2000/svg" xmlns:xlink="http://www.w3.org/1999/xlink" xml:space="preserve" xmlns:serif="http://www.serif.com/" style="fill-rule:evenodd;clip-rule:evenodd;stroke-linejoin:round;stroke-miterlimit:2;">
    <g transform="matrix(0.45319,0,0,0.45319,227.5,256.049)">
        <g transform="matrix(1,0,0,1,-400,-400)">
            <g transform="matrix(4.16667,0,0,4.16667,-5300,0)">
                <path d="M1440,142L1440,36C1440,29.377 1434.62,24 1428,24L1308,24C1301.38,24 1296,29.377 1296,36L1296,156C1296,162.623 1301.38,168 1308,168L1414,168C1428.35,168 1440,156.35 1440,142ZM1428,136.501C1423.46,139.596 1418.09,141.25 1412.6,141.243L1308,141.243L1308,156L1414,156C1421.73,156 1428,149.727 1428,142L1428,136.501ZM1428,113.937L1428,36L1308,36L1308,129.243L1412.6,129.243C1414.31,129.245 1416.01,128.962 1417.62,128.403C1419.77,127.659 1421.73,126.449 1423.35,124.859C1425.04,123.205 1426.34,121.185 1427.13,118.955C1427.5,117.903 1427.75,116.81 1427.89,115.702C1427.96,115.116 1427.99,114.527 1428,113.937ZM1362,67.703L1346.6,67.703C1343.28,67.703 1340.6,70.391 1340.6,73.703C1340.6,77.014 1343.28,79.703 1346.6,79.703L1362,79.703L1362,112.946C1362,116.257 1364.69,118.946 1368,118.946C1371.31,118.946 1374,116.257 1374,112.946L1374,79.703L1389.4,79.703C1392.72,79.703 1395.4,77.014 1395.4,73.703C1395.4,70.391 1392.72,67.703 1389.4,67.703L1374,67.703L1374,52.297C1374,48.986 1371.31,46.297 1368,46.297C1364.69,46.297 1362,48.986 1362,52.297L1362,67.703Z"/>
            </g>
        </g>
    </g>
</svg>
